<svg xmlns="http://www.w3.org/2000/svg" viewBox="0 0 22 18">
  <path
    fill-rule="evenodd"
    clip-rule="evenodd"
    d="M14.6498 2.34532C14.6954 2.34532 14.7487 2.3448 14.8088 2.34421C16.1103 2.33143 20.5975 2.28737 19.7319 6.85448C19.6053 7.37821 19.5102 8.18045 20.1314 8.35015C20.6974 8.49223 21.0457 7.90178 21.2017 7.45237C21.207 7.41552 21.2232 7.3473 21.2458 7.2525C21.544 6.00143 22.9451 0.12203 14.7328 0.651278C14.4504 0.701092 13.8238 0.94232 13.8193 1.46142C13.8149 1.98062 14.3689 2.31865 14.6498 2.34532ZM14.9279 4.41848L14.9535 4.41507C15.2678 4.37165 17.6607 4.04118 17.4572 6.66261C17.4682 6.73335 17.4617 6.81859 17.455 6.90623C17.4383 7.12419 17.4204 7.35703 17.668 7.41891C18.0152 7.50571 18.1515 7.22054 18.1887 6.96018L18.1915 6.94123C18.2477 6.56337 18.7513 3.17578 14.9692 3.57538C14.6774 3.60751 14.4816 3.78202 14.5146 4.03826C14.5477 4.2945 14.7627 4.43785 14.9279 4.41848ZM15.4718 8.10008C14.9819 8.87238 16.0199 8.64815 16.0199 8.64815C16.0199 8.64815 19.5062 7.84465 18.2972 12.0362C17.3901 14.8264 12.0712 19.141 4.76706 16.533C1.7742 15.3196 -0.160492 12.5375 1.04757 9.31814C3.19004 4.01442 10.7521 1.10519 10.6513 5.18531C10.6139 5.93269 10.6139 6.35619 11.735 5.7583C14.9892 4.11117 16.2444 6.58948 15.4718 8.10008ZM9.01468 15.567C5.55694 16.0426 2.49201 14.524 2.16893 12.1751C1.84584 9.82616 4.38699 7.53646 7.8447 7.06086C11.3024 6.58526 14.3674 8.10386 14.6905 10.4528C15.0135 12.8017 12.4724 15.0914 9.01468 15.567ZM7.88881 8.70653C9.69184 8.36078 11.3759 9.24055 11.6503 10.6715C11.9247 12.1025 10.6855 13.5428 8.88248 13.8885C7.07945 14.2343 5.39536 13.3545 5.12097 11.9235C4.84657 10.4926 6.08578 9.05228 7.88881 8.70653ZM7.6742 12.5687C7.05166 12.5687 6.54697 12.1391 6.54697 11.6093C6.54697 11.0795 7.05166 10.65 7.6742 10.65C8.29675 10.65 8.80144 11.0795 8.80144 11.6093C8.80144 12.1392 8.29675 12.5687 7.6742 12.5687ZM9.05231 10.65C9.05231 10.9943 9.28862 11.2735 9.52095 11.2735C9.75328 11.2735 9.98959 10.9944 9.98959 10.65C9.98959 10.3056 9.75328 10.0264 9.52095 10.0264C9.28862 10.0264 9.05231 10.3056 9.05231 10.65Z"
    fill="currentColor"
  ></path>
</svg>
