<svg xmlns="http://www.w3.org/2000/svg" viewBox="0 0 21 18">
  <path
    fill-rule="evenodd"
    clip-rule="evenodd"
    d="M14.4148 5.94767C14.3173 5.94402 14.2193 5.94182 14.1208 5.94182C10.5102 5.94182 7.58336 8.42358 7.58332 11.4849C7.58332 12.0749 7.69242 12.6432 7.89379 13.1766C7.71129 13.1884 7.52686 13.1944 7.34078 13.1944C6.37548 13.1944 5.45481 13.0323 4.6137 12.739L2.23308 14.0444L2.95201 11.9238C1.24503 10.8045 0.14502 9.04805 0.14502 7.07277C0.14502 3.69192 3.36667 0.951172 7.3408 0.951172C10.8631 0.951172 13.7939 3.10423 14.4148 5.94767ZM10.8867 5.03996C10.8867 4.45308 10.4109 3.97733 9.82408 3.97733C9.23722 3.97733 8.76147 4.45308 8.76145 5.03996C8.76145 5.62685 9.2372 6.10259 9.82408 6.10259C10.411 6.10259 10.8867 5.62682 10.8867 5.03996ZM4.8806 6.10257C4.29373 6.10257 3.81797 5.62682 3.81797 5.03994C3.81797 4.45308 4.29371 3.97731 4.8806 3.97731C5.46748 3.97731 5.94323 4.45305 5.94323 5.03994C5.94323 5.6268 5.46748 6.10257 4.8806 6.10257ZM14.1208 6.33356C17.4761 6.33356 20.1962 8.63991 20.1962 11.485C20.1962 13.231 19.1714 14.774 17.6044 15.7056L18.2081 17.4864L16.1308 16.3473C15.5016 16.5343 14.8253 16.6364 14.1208 16.6364C10.7654 16.6364 8.04536 14.33 8.04536 11.485C8.04536 8.63991 10.7654 6.33356 14.1208 6.33356ZM11.3718 9.89496C11.3718 10.3648 11.7527 10.7457 12.2226 10.7457C12.6925 10.7457 13.0734 10.3648 13.0734 9.89496C13.0734 9.42508 12.6925 9.04418 12.2226 9.04418C11.7527 9.04418 11.3718 9.42508 11.3718 9.89496ZM16.1806 10.7457C15.7108 10.7457 15.3299 10.3648 15.3299 9.89496C15.3299 9.42508 15.7108 9.04418 16.1806 9.04418C16.6505 9.04418 17.0314 9.42508 17.0314 9.89496C17.0314 10.3648 16.6505 10.7457 16.1806 10.7457Z"
    fill="currentColor"
  ></path>
</svg>
