<svg xmlns="http://www.w3.org/2000/svg" viewBox="0 0 15 16">
  <path
    fill-rule="evenodd"
    clip-rule="evenodd"
    d="M14.7233 2.74384C14.769 2.84544 14.8056 2.96401 14.8332 3.09921C14.8615 3.2348 14.8755 3.37565 14.8755 3.5222C14.8755 3.66874 14.8471 3.81526 14.7909 3.96217C14.7342 4.1087 14.6439 4.24996 14.5201 4.38516C14.3849 4.52036 14.2636 4.63895 14.1564 4.74014C14.0491 4.84174 13.9562 4.932 13.8773 5.01093C13.787 5.10119 13.7024 5.18012 13.6235 5.24771L10.4595 2.0841C10.5947 1.96022 10.7556 1.81066 10.9418 1.63582C11.1279 1.46098 11.2828 1.32312 11.407 1.22115C11.5649 1.09728 11.7284 1.01005 11.8976 0.959067C12.0668 0.908471 12.2333 0.885805 12.3968 0.891477C12.5604 0.897149 12.7182 0.922436 12.8704 0.967768C13.0226 1.01271 13.1552 1.06331 13.2681 1.11996C13.5049 1.24421 13.767 1.46098 14.0548 1.77105C14.3426 2.08143 14.5654 2.40546 14.7233 2.74384ZM1.5435 11.0001C1.61109 10.9322 1.76896 10.7716 2.01708 10.5179C2.2652 10.2641 2.57563 9.95101 2.94763 9.57903L4.18294 8.34411L5.55306 6.9736L9.19063 3.33601L12.3546 6.51662L8.71705 10.1542L7.36353 11.5243C6.91262 11.9643 6.50626 12.3676 6.14522 12.7339C5.78456 13.1006 5.48545 13.4024 5.24867 13.6392C5.01189 13.876 4.87102 14.0116 4.82569 14.0452C4.71315 14.1468 4.58324 14.254 4.43672 14.3665C4.29019 14.4795 4.13761 14.5697 3.97974 14.6373C3.82188 14.7163 3.59077 14.8122 3.28599 14.9251C2.9816 15.0376 2.66286 15.1476 2.33015 15.2548C1.99744 15.3621 1.68171 15.4553 1.3826 15.5343C1.08388 15.6128 0.861071 15.6638 0.714526 15.6865C0.409748 15.7201 0.206957 15.6752 0.105358 15.5509C0.0037581 15.427 -0.0241716 15.2182 0.0207522 14.9251C0.0434183 14.7672 0.0970433 14.5388 0.181627 14.2397C0.269806 13.9289 0.359942 13.6187 0.45203 13.3091C0.547957 12.9877 0.640856 12.692 0.731498 12.4213C0.821754 12.1505 0.895016 11.9643 0.951284 11.8627C1.01887 11.7048 1.09516 11.5613 1.17977 11.4314C1.26442 11.3019 1.38563 11.158 1.5435 11.0001ZM8.69778 14.1909H7.18491V15.697H8.69778V14.1909ZM10.259 14.1909H11.7719V15.697H10.259V14.1909ZM14.8581 14.1909H13.3452V15.697H14.8581V14.1909Z"
    fill="currentColor"
  ></path>
</svg>
