<svg xmlns="http://www.w3.org/2000/svg" viewBox="0 0 20 20">
  <path
    d="M14.1644 4.30953C14.1644 1.92944 12.2349 0 9.85485 0C7.47476 0 5.54532 1.92944 5.54532 4.30953C5.54532 6.68962 7.47475 8.61906 9.85485 8.61906C12.2349 8.61906 14.1644 6.68962 14.1644 4.30953ZM13.7185 11.0953L13.25 11.0919H6.46L5.9915 11.0953L5.36878 11.1068L5.00177 11.1196L4.66908 11.1372L4.36714 11.1603L4.22657 11.1741L4.09235 11.1895L3.84114 11.2254L3.685 11.2533C3.58363 11.2731 3.48747 11.2951 3.39512 11.3197L3.19314 11.3793L3.00041 11.4481L2.90638 11.4861L2.7208 11.5698L2.67459 11.5924L2.43687 11.7187C1.61877 12.1832 0.953198 12.8782 0.524659 13.7193C0.268996 14.2211 0.133995 14.722 0.0654197 15.5105L0.0364164 15.93L0.0169773 16.4054L0.00729991 16.8315L0.000765568 17.5562L0 18.929L0.0052055 19.0201C0.0501164 19.4085 0.380122 19.71 0.780594 19.71H18.9294L19.0204 19.7048C19.4087 19.6597 19.71 19.3298 19.71 18.9294L19.7092 17.5575L19.7027 16.8324L19.693 16.4061L19.6782 16.0209L19.6574 15.6724L19.6399 15.4586C19.57 14.6998 19.4353 14.2099 19.1854 13.7193C18.7239 12.8135 17.9874 12.0771 17.0817 11.6156L16.9892 11.5698L16.8036 11.4861L16.6621 11.43L16.5169 11.3793L16.3149 11.3197L16.1733 11.2847C16.0768 11.2626 15.9758 11.2429 15.8689 11.2254L15.6176 11.1895L15.4834 11.1741L15.1955 11.1481L14.8786 11.1278L14.7082 11.1196L14.3412 11.1068L13.7185 11.0953Z"
    fill="currentColor"
  ></path>
</svg>
