<svg xmlns="http://www.w3.org/2000/svg" viewBox="0 0 69 25" fill="none">
	<g clip-path="url(#clip0_723_3561)">
		<path
			d="M3.88 0.5C1.737 0.5 0 2.22 0 4.345V20.655C0 22.778 1.736 24.5 3.88 24.5H20.345C22.489 24.5 24.225 22.778 24.225 20.655V20.488C24.153 20.458 17.929 17.887 14.765 16.38C12.632 18.982 9.879 20.56 7.021 20.56C2.188 20.56 0.547 16.37 2.835 13.611C3.335 13.01 4.183 12.435 5.5 12.114C7.561 11.612 10.84 12.427 13.915 13.432C14.4873 12.383 14.9446 11.2752 15.279 10.128H5.806V9.178H10.691V7.474H4.775V6.522H10.691V4.092C10.691 4.092 10.691 3.682 11.11 3.682H13.498V6.522H19.346V7.474H13.498V9.178H18.272C17.8417 10.9516 17.1612 12.655 16.251 14.237C17.699 14.756 19 15.248 19.969 15.57C23.202 16.642 24.109 16.773 24.225 16.786V4.346C24.225 2.22 22.49 0.5 20.345 0.5H3.882H3.88ZM6.537 13.503C6.32794 13.5054 6.11908 13.5167 5.911 13.537C5.306 13.597 4.17 13.862 3.549 14.407C1.687 16.015 2.801 18.957 6.569 18.957C8.76 18.957 10.949 17.569 12.669 15.347C10.452 14.275 8.543 13.48 6.537 13.503Z"
			fill="#027AFF" />
		<path
			d="M66.3578 17.1844L65.2768 19.5174L64.1798 17.1844H63.1068L64.7768 20.4104V22.6604H65.7608V20.4104L65.7668 20.3974L67.4298 17.1844H66.3578ZM58.4408 18.5964L59.2038 20.8664H57.6498L58.4398 18.5964H58.4408ZM59.4378 21.5564L59.8048 22.6604H60.8358L58.8058 17.1844H58.0188L55.9958 22.6604H57.0268L57.4108 21.5574L59.4378 21.5564ZM51.7448 19.8024H50.6498V17.9284H51.7448C52.2948 17.9284 52.6238 18.4074 52.6238 18.8684C52.6238 19.3214 52.3168 19.8024 51.7448 19.8024ZM51.8008 17.1844H49.6588V22.6604H50.6488V20.5554H51.7998C52.8698 20.5554 53.6158 19.8614 53.6158 18.8694C53.6158 17.8764 52.8698 17.1844 51.8008 17.1844ZM44.6478 22.6604H45.6398V17.1844H44.6478V22.6604ZM37.6748 17.1844V22.6604H41.0118V21.9144H38.6658V17.1844H37.6748ZM32.0278 18.5964L32.7898 20.8664H31.2378L32.0278 18.5964ZM33.0248 21.5564L33.3928 22.6604H34.4228L32.3928 17.1844H31.6058L29.5828 22.6604H30.6128L30.9968 21.5574L33.0248 21.5564ZM40.0028 6.48043H35.7508V4.96543H40.6818V4.02243H35.7518V2.10443H33.5528C33.4947 2.10521 33.4374 2.11742 33.3841 2.14036C33.3307 2.1633 33.2825 2.19652 33.242 2.23812C33.2015 2.27972 33.1696 2.32889 33.1481 2.38282C33.1266 2.43675 33.116 2.49438 33.1168 2.55243V4.02243H28.2208V4.96543H33.1168V6.48043H28.9848V7.42243H37.2148C37.2148 7.42243 36.7598 9.19243 34.5018 11.0944C32.4788 9.57243 31.8028 8.36043 31.8028 8.36043H29.5948C30.4878 9.89943 31.7578 11.1304 33.1248 12.1084C31.8688 12.9184 30.2398 13.7004 28.1348 14.3254V15.4554C28.1348 15.4554 31.3828 14.8454 34.5228 13.0074C37.6678 14.8314 40.8258 15.4544 40.8258 15.4544V14.3864C38.8048 13.6544 37.2028 12.8504 35.9458 12.0754C37.7668 10.7354 39.3638 8.91543 40.0028 6.48043ZM53.8158 2.29343H51.6028V4.59043H46.1468V5.51643H51.6028V13.7774C51.5945 13.8686 51.5539 13.9537 51.4882 14.0174C51.4225 14.0811 51.3361 14.1191 51.2448 14.1244H50.1198V15.0814H52.9898C53.2106 15.0703 53.4188 14.9755 53.5723 14.8163C53.7257 14.6571 53.8127 14.4455 53.8158 14.2244V5.51643H54.7148V4.59043H53.8158V2.29343ZM49.1478 7.07643C49.108 6.99366 49.0459 6.92362 48.9686 6.87416C48.8912 6.8247 48.8016 6.79778 48.7098 6.79643H46.8658L48.3028 11.2924H50.4838L49.1478 7.07643ZM43.7008 2.18543L41.1618 8.15043H43.1098V15.2504H45.2398V5.83343H44.4678L46.0718 2.18343H43.6998L43.7008 2.18543ZM68.3988 14.9254L67.6208 12.3154C67.5958 12.2328 67.5451 12.1602 67.476 12.1084C67.4069 12.0566 67.3231 12.0282 67.2368 12.0274H65.1748L65.7728 14.0334H63.3478V10.1464H68.1088V9.22243H63.3478V7.39243H68.1088V6.46843H56.2278V7.39343H60.9878V9.22243H56.2278V10.1464H60.9878V14.0324H56.2278V14.9564H68.3998L68.3898 14.9244H68.3998L68.3988 14.9254ZM58.7028 4.26243H65.6378V5.62643H68.1148V4.01043L68.1138 4.00043C68.1151 3.82779 68.0486 3.66153 67.9285 3.53751C67.8084 3.41348 67.6444 3.34162 67.4718 3.33743H63.4638V2.06543H60.8718V3.33743H56.2268V5.62743H58.7028V4.26143V4.26243Z"
			fill="#3F3B3A" />
	</g>
</svg>