<svg xmlns="http://www.w3.org/2000/svg" viewBox="0 0 14 14">
  <path
    fill-rule="evenodd"
    clip-rule="evenodd"
    d="M7.84387 0.0480919C7.74375 0.0323528 7.64363 0.0166136 7.54395 0H6.38712C6.27486 0.0197916 6.16228 0.0381614 6.04964 0.0565406C5.84378 0.0901293 5.63774 0.123749 5.43315 0.166136C2.71202 0.757229 0.538266 3.06302 0.0993179 5.82962L0.00488281 6.41372V7.57667C0.0214107 7.67394 0.037015 7.77163 0.0526323 7.8694C0.087415 8.08715 0.122262 8.30531 0.167521 8.52014C0.748122 11.2561 3.01194 13.4316 5.75668 13.8977C5.8575 13.9146 5.95804 13.9326 6.05861 13.9506C6.13511 13.9643 6.21163 13.978 6.28831 13.9913H7.64363C7.74008 13.9736 7.83689 13.9574 7.93372 13.9411C8.13972 13.9065 8.3458 13.8718 8.54863 13.8242C10.2642 13.4142 11.6326 12.4803 12.6644 11.0463C12.6876 11.0147 12.7092 10.9821 12.7291 10.9483C12.7337 10.9365 12.7366 10.9242 12.7379 10.9116L8.65094 9.10599C8.53326 9.21784 8.41725 9.33154 8.30127 9.44522C8.05186 9.68968 7.80255 9.93403 7.53695 10.1596C6.74825 10.8268 5.84412 11.2579 4.81058 11.3584C3.95979 11.4389 3.1466 11.2999 2.43221 10.7813C1.90583 10.4001 1.62165 9.88508 1.55782 9.2389C1.44239 8.08469 2.18039 7.0975 3.34334 6.75561C3.91869 6.58685 4.50104 6.59297 5.09039 6.66642C6.10381 6.79233 7.07964 7.08088 8.05023 7.38692C8.0887 7.39916 8.16827 7.38342 8.18226 7.35719C8.47464 6.82133 8.70521 6.254 8.86954 5.6661C8.87094 5.65156 8.87094 5.63692 8.86954 5.62238H3.73332V5.09075H6.37925V4.16301H3.17021V3.62701H6.38187C6.38264 3.59688 6.38406 3.56909 6.38543 3.54246C6.3872 3.50803 6.38887 3.47554 6.38887 3.44251V2.31191C6.38887 2.16676 6.44308 2.04959 6.59698 2.04609C6.91606 2.03975 7.23514 2.04077 7.5599 2.04181C7.68279 2.0422 7.80649 2.0426 7.93131 2.0426V3.60952H11.1054V4.15165H7.9488V5.07501H10.5414C10.3132 6.05434 9.94505 6.99607 9.45014 7.87046C10.8081 8.38286 12.159 8.88127 13.593 9.24589C13.6187 9.13918 13.6447 9.03349 13.6707 8.92836C13.7244 8.71046 13.7776 8.49499 13.8248 8.27793C13.8564 8.13118 13.8795 7.98204 13.9025 7.83369C13.9106 7.78139 13.9186 7.72919 13.9271 7.67722V6.31403C13.9111 6.22642 13.8958 6.13857 13.8805 6.05072C13.8448 5.84574 13.8091 5.64075 13.7644 5.43876C13.1698 2.70976 10.892 0.545625 8.14379 0.0961839C8.04411 0.0795703 7.94399 0.0638311 7.84387 0.0480919ZM7.46613 8.49479C6.55326 8.06021 5.66574 7.64837 4.67592 7.53732L4.67505 7.53819C3.98864 7.45862 3.33547 7.54082 2.71202 7.8556C1.9749 8.22897 1.69072 9.3071 2.53802 9.98389C3.18507 10.4989 3.95104 10.5689 4.72664 10.4115C5.89658 10.1719 6.72726 9.41465 7.46613 8.49479Z"
    fill="currentColor"
  ></path>
</svg>
