<svg xmlns="http://www.w3.org/2000/svg" viewBox="0 0 17 18">
  <path
    fill-rule="evenodd"
    clip-rule="evenodd"
    d="M2.37648 0H14.6237C15.9326 0 16.9921 1.06071 16.9921 2.37054V13.6286C16.9921 14.9384 15.9306 15.9991 14.6237 15.9991H3.66944L0.00805664 18V2.37054C0.00805664 1.06071 1.06956 0 2.37648 0ZM9.63141 9.55446H7.46252V7.17388H9.63141V9.55446ZM4.04655 12.5859C4.09843 12.2083 4.10841 11.8929 4.10841 11.2862V6.32612C4.10841 5.7596 4.09843 5.46629 4.06651 5.15089H5.24972C5.22777 5.48638 5.20782 5.97857 5.20782 6.31406V6.33415L5.2178 11.3062C5.2178 11.935 5.23775 12.2283 5.27965 12.5859H4.04655ZM5.29162 2.85268L4.40172 3.39911C5.21979 4.29107 5.55501 4.73103 5.97402 5.47433L6.90583 4.7933C6.43294 4.08013 5.97202 3.53371 5.29162 2.85268ZM7.15923 10.5408C6.81404 10.5408 6.59256 10.5509 6.34116 10.583C6.37308 10.3842 6.38306 10.1531 6.38306 9.84978V6.92277C6.38306 6.63951 6.37308 6.49286 6.35113 6.17746L6.4336 6.18275H6.43361C6.69609 6.19964 6.85076 6.2096 7.13728 6.2096H9.9347C10.2699 6.2096 10.4894 6.19955 10.7528 6.17746C10.7308 6.42857 10.7208 6.60737 10.7208 6.91071V9.84777C10.7208 10.1511 10.7308 10.3299 10.7528 10.571L10.7054 10.5677C10.4416 10.5496 10.2851 10.5388 9.99855 10.5388H7.15923V10.5408ZM13.0155 11.3183V4.5221C13.0155 3.95558 13.0254 3.68237 13.0693 3.34687C12.796 3.37902 12.5246 3.38906 11.9899 3.38906H8.19679C7.74585 3.38906 7.41064 3.36897 7.12731 3.33683L7.13728 4.47991C7.5563 4.44777 7.89151 4.42768 8.17484 4.42768H11.9061V11.1837C11.9061 11.3605 11.8103 11.4348 11.5489 11.4348C11.3813 11.4348 10.8266 11.3926 10.4914 11.3605C10.647 11.7261 10.7308 12.0516 10.7947 12.4714C11.6327 12.4815 11.7065 12.4815 11.7165 12.4815C12.7321 12.4815 13.0155 12.2304 13.0155 11.3183Z"
    fill="currentColor"
  />
</svg>
