<svg xmlns="http://www.w3.org/2000/svg" viewBox="0 0 27 29">
  <path
    fill-rule="evenodd"
    clip-rule="evenodd"
    d="M8.24145 2.54076L8.44758 2.34761L8.67056 2.15364L8.82929 2.02427L9.14349 1.78764L9.52587 1.53126L9.74333 1.39952L9.94182 1.28755L10.1361 1.18525L10.3337 1.08825L10.5426 0.993144L10.9126 0.842531L11.04 0.795776C11.2702 0.71357 11.5055 0.641852 11.7453 0.581262L11.9547 0.531454C12.3545 0.442225 12.766 0.383727 13.1867 0.358578L13.4349 0.347656H14.0042C18.1808 0.476686 21.4992 3.90078 21.4972 8.07936C21.493 9.82624 20.8755 11.5162 19.7525 12.8543C19.5444 13.1236 19.3363 13.4012 19.139 13.6814L18.8526 14.1031L18.467 14.6908C18.3127 14.911 18.1867 15.1493 18.0916 15.4002L18.0262 15.5907V15.7743C18.0392 16.4474 18.34 17.0826 18.8526 17.519L19.0597 17.7249L19.2453 17.8872L19.4587 18.0516H23.297L23.3154 18.0333C25.7858 18.0333 26.9146 18.962 26.9849 21.0526L26.9884 21.2655V26.2241C26.9884 27.6216 25.904 28.7673 24.5286 28.8624L24.3622 28.8688L3.07701 28.8687C2.37413 28.8736 1.6986 28.5966 1.20157 28.0995C1.108 28.006 1.02222 27.906 0.944652 27.8008L0.827878 27.6285L0.754542 27.5028L0.666362 27.3262L0.591353 27.1424L0.558939 27.048L0.493747 26.8071L0.457858 26.6078C0.448891 26.544 0.442249 26.4797 0.437988 26.415L0.432373 26.2241V21.2288C0.432373 19.0605 1.4816 18.0618 3.86288 17.9996L4.10546 17.9965H7.90703C8.1247 17.8445 8.3276 17.6723 8.51308 17.4823C8.94844 17.082 9.21799 16.5361 9.2738 15.952L9.28442 15.756V15.5723C9.10503 15.0307 8.83828 14.522 8.49472 14.0664C8.21924 13.644 7.9254 13.24 7.63156 12.8543C6.49936 11.4856 5.88209 9.76378 5.88687 7.98754C5.89301 7.60746 5.92641 7.23399 5.98521 6.869C6.0039 6.75299 6.02514 6.63792 6.04888 6.52377L6.12878 6.17935L6.23286 5.81132L6.33076 5.51646L6.3888 5.35822L6.50185 5.07696L6.65238 4.74471L6.77586 4.49962L6.92577 4.22807L7.13789 3.88253L7.36616 3.55065L7.55091 3.30661L7.77209 3.03858L7.84844 2.95145L7.96932 2.81866L8.24145 2.54076ZM13.9492 2.29436H13.4717C10.3837 2.38208 7.90954 4.88052 7.85194 7.96917C7.85458 9.25877 8.30951 10.5066 9.1375 11.4953C9.5048 11.9728 9.8721 12.4686 10.2027 12.9645C10.8379 13.7231 11.2228 14.6597 11.3046 15.6458C11.3537 16.8621 10.8868 18.0427 10.019 18.8964C9.72524 19.1643 9.41316 19.4111 9.08511 19.6351L8.75183 19.8514L8.51308 19.9983H4.10546C3.60891 19.935 3.10468 20.0179 2.65462 20.2371C2.4142 20.3723 2.37049 20.5936 2.36254 21.0015L2.36077 26.2792L2.28731 26.2241C2.28802 26.4093 2.36042 26.587 2.48933 26.7199C2.58935 26.8236 2.71971 26.891 2.86003 26.9136L2.96682 26.922H24.2703C24.6078 26.9132 24.8853 26.6656 24.9402 26.3417L24.9499 26.2425V21.2839C24.9499 20.2789 24.8144 20.0187 23.4225 19.9995L18.8159 19.9983L18.5772 19.8514C18.1376 19.5739 17.731 19.2473 17.3651 18.878C16.4765 18.0154 16.0072 16.8087 16.0795 15.5723C16.113 14.9273 16.3078 14.3023 16.6445 13.754L16.7774 13.5522L17.2181 12.8543C17.5122 12.3847 17.831 11.9311 18.1731 11.4953C19.0011 10.5066 19.456 9.25877 19.4587 7.96917C19.4223 4.91391 17.002 2.42104 13.9492 2.29436ZM18.7424 24.5529V22.6429H8.67837V24.5529H18.7424Z"
    fill="currentColor"
  />
</svg>
