<svg xmlns="http://www.w3.org/2000/svg" viewBox="0 0 44 44">
<path d="M11.2746 10.7795L25.596 3.92314C25.8212 3.75738 26.0935 3.66797 26.3732 3.66797C26.6528 3.66797 26.9252 3.75738 27.1504 3.92314C27.6636 4.26327 28.0097 4.6034 28.0097 5.29709V39.549C28.0097 40.2278 28.0097 40.3948 27.8367 40.7424C27.6636 40.9155 27.4965 41.2556 27.3235 41.2556C26.9759 41.4287 26.6298 41.4287 25.9361 41.4287H9.22039C8.53416 41.4287 8.36111 41.4287 8.02098 41.2556C7.84643 41.0811 7.5063 40.9155 7.5063 40.7409C7.33325 40.4008 7.33325 40.2278 7.33325 39.555V17.964C7.33325 16.0754 7.5063 15.5622 7.67338 14.7149C7.84643 14.0346 8.19402 13.3424 8.70721 12.8277C9.21442 12.3146 9.73506 11.8073 11.2746 10.7795ZM14.2105 20.885C14.2105 21.9128 14.9042 22.6006 15.5979 22.6006H19.7391C20.4254 22.6006 21.1265 21.9188 21.1265 20.885C21.1265 19.8571 20.4328 19.1694 19.7391 19.1694H15.5979C14.9042 19.1694 14.2105 19.8512 14.2105 20.885ZM14.3895 26.0272C14.2158 26.5859 14.2158 27.1842 14.3895 27.7428C14.57 28.25 15.0504 28.5887 15.5904 28.5961H19.7332C20.4194 28.5961 21.1205 27.9159 21.1205 26.8806C21.1205 25.8602 20.4268 25.1665 19.7332 25.1665H15.5904V25.1814C15.0772 25.1814 14.7371 25.52 14.3895 26.0272ZM14.2105 32.8776C14.2105 33.9114 14.9042 34.5932 15.5979 34.5932H19.7391C20.4254 34.5932 21.1265 33.9114 21.1265 32.8776C21.1265 31.8438 20.4328 31.1635 19.7391 31.1635H15.5979C14.9042 31.1635 14.2105 31.8438 14.2105 32.8776ZM33.8725 12.8277C33.6633 12.6447 33.4112 12.5176 33.1397 12.4581C32.8682 12.3986 32.5861 12.4088 32.3195 12.4876C31.8049 12.6607 31.4588 13.1738 31.4588 13.8616V39.555C31.4588 40.2352 31.4588 40.4083 31.6318 40.7484C31.8049 41.0885 31.9719 41.0885 32.145 41.2616C32.3195 41.4346 32.6597 41.4346 33.1728 41.4346H36.6279C37.3216 41.4346 37.4886 41.4346 37.6617 41.2616L38.1749 40.7484C38.3494 40.5813 38.3494 40.2352 38.3494 39.555V21.2251C38.3494 19.6781 38.3494 19.1709 38.1749 18.6577C38.0018 18.1505 37.8347 17.6373 37.4886 17.1092C37.1485 16.596 36.9755 16.2559 35.9342 15.055L33.8725 12.8277Z" fill="currentColor"/>
</svg>
