<svg xmlns="http://www.w3.org/2000/svg" viewBox="0 0 24 24" fill="currentColor">
	<path fill-rule="evenodd" clip-rule="evenodd"
		d="M5.26518 2H19.5547C20.7996 2.01637 21.8 3.03025 21.7999 4.2752V13.0764C21.7522 13.314 21.5434 13.485 21.301 13.485C21.0586 13.485 20.8498 13.314 20.8021 13.0764V11.9288H12.9288V19.832H14.4057C14.5045 19.8122 14.6069 19.8221 14.7001 19.8605C14.7932 19.8989 14.8729 19.9641 14.929 20.0479C14.985 20.1316 15.0149 20.2301 15.0149 20.3309C15.0149 20.4316 14.9849 20.5301 14.9289 20.6139C14.8728 20.6976 14.7932 20.7628 14.7001 20.8013C14.6069 20.8397 14.5045 20.8497 14.4057 20.8298H5.26518C4.01254 20.8244 3 19.8074 3 18.5547V4.2752C3 3.02255 4.01254 2.00553 5.26518 2ZM11.901 3.0278H5.26518C4.58019 3.03329 4.02778 3.59012 4.02778 4.2752V10.901H11.901V3.0278ZM5.26518 19.8021H11.901L11.901 11.9288H4.01777V18.5548C4.01777 19.2436 4.5763 19.8021 5.26518 19.8021ZM12.8989 3.0278V10.901H20.7721V4.27522C20.7721 3.58629 20.2136 3.0278 19.5248 3.0278H12.8989ZM21.3247 17.8512C21.2515 17.8694 21.1753 17.8711 21.1014 17.8563L19.5746 17.8263V18.5846H21.0815C21.1803 18.5648 21.2827 18.5747 21.3759 18.6132C21.469 18.6516 21.5487 18.7168 21.6047 18.8006C21.6608 18.8843 21.6907 18.9828 21.6907 19.0836C21.6907 19.1844 21.6608 19.2829 21.6047 19.3666C21.5487 19.4504 21.469 19.5156 21.3759 19.5541C21.2827 19.5925 21.1803 19.6024 21.0815 19.5825H19.5547V20.3909C19.5746 20.4897 19.5646 20.5921 19.5262 20.6853C19.4878 20.7784 19.4225 20.858 19.3388 20.9141C19.255 20.9701 19.1566 21 19.0558 21C18.955 21 18.8565 20.9701 18.7728 20.9141C18.689 20.8581 18.6238 20.7784 18.5853 20.6853C18.5469 20.5921 18.537 20.4897 18.5568 20.3909V19.5825H17.0301C16.9313 19.6024 16.8288 19.5925 16.7357 19.554C16.6425 19.5156 16.5628 19.4504 16.5068 19.3666C16.4508 19.2829 16.4209 19.1844 16.4209 19.0836C16.4209 18.9828 16.4508 18.8843 16.5068 18.8006C16.5629 18.7168 16.6425 18.6516 16.7357 18.6132C16.8288 18.5747 16.9313 18.5648 17.0301 18.5846H18.5568V17.8263H17.0301C16.7924 17.7785 16.6215 17.5698 16.6215 17.3273C16.6215 17.085 16.7924 16.8761 17.0301 16.8284H18.2375L16.7007 15.1321C16.5107 14.9198 16.5285 14.5937 16.7407 14.4036C16.9528 14.2134 17.279 14.2313 17.4692 14.4435L19.0558 16.1997L20.6225 14.4934C20.8125 14.2812 21.1387 14.2633 21.3509 14.4534C21.5631 14.6436 21.5809 14.9697 21.3908 15.1819L19.884 16.8584H21.1014C21.1753 16.8435 21.2515 16.8452 21.3247 16.8634C21.3978 16.8816 21.4659 16.9158 21.5242 16.9635C21.5825 17.0113 21.6295 17.0714 21.6617 17.1395C21.694 17.2076 21.7107 17.282 21.7107 17.3573C21.7107 17.4326 21.694 17.5071 21.6617 17.5752C21.6295 17.6432 21.5825 17.7033 21.5242 17.7511C21.4659 17.7988 21.3978 17.833 21.3247 17.8512ZM7.72993 7.26883H6.45265V7.27882C6.2625 7.27882 6.10834 7.12466 6.10834 6.93451C6.10834 6.74436 6.2625 6.5902 6.45265 6.5902H7.72993V5.303C7.72993 5.11287 7.88401 4.95871 8.07414 4.95871C8.26429 4.95871 8.41845 5.11287 8.41845 5.303V6.58031H9.69566C9.88581 6.58031 10.04 6.73437 10.04 6.92452C10.04 7.11467 9.88581 7.26883 9.69566 7.26883H8.41845V8.54611C8.41845 8.73626 8.26429 8.89032 8.07414 8.89032C7.88403 8.89032 7.72993 8.73626 7.72993 8.54611V7.26883ZM6.32472 17.8833C6.28271 17.8654 6.24475 17.8392 6.21311 17.8063C6.18022 17.7747 6.15405 17.7367 6.13618 17.6947C6.11832 17.6527 6.10911 17.6075 6.10913 17.5618C6.10914 17.5162 6.11836 17.471 6.13623 17.429C6.15411 17.387 6.18027 17.349 6.21315 17.3174L7.58027 15.9503L6.20314 14.5733C6.06813 14.4383 6.06813 14.2193 6.20314 14.0843C6.33817 13.9493 6.55705 13.9493 6.6921 14.0843L8.07921 15.4614L9.44627 14.0743C9.5813 13.9393 9.80017 13.9393 9.93521 14.0743C10.0703 14.2094 10.0703 14.4282 9.93521 14.5633L8.55816 15.9403L9.94518 17.3174C10.0802 17.4524 10.0802 17.6714 9.94518 17.8063C9.81016 17.9414 9.59129 17.9414 9.45624 17.8063L8.07919 16.4293L6.70207 17.8063C6.67043 17.8392 6.63247 17.8654 6.59046 17.8833C6.54845 17.9012 6.50325 17.9104 6.45759 17.9104C6.41193 17.9104 6.36674 17.9012 6.32472 17.8833ZM15.2438 6.5902H18.4869C18.6771 6.5902 18.8313 6.74436 18.8313 6.93451C18.8313 7.12466 18.6771 7.27882 18.4869 7.27882H15.2438C15.0537 7.27882 14.8996 7.12466 14.8996 6.93451C14.8996 6.74436 15.0537 6.5902 15.2438 6.5902Z" />
	<path
		d="M19.5547 2L19.556 1.9H19.5547V2ZM5.26518 2V1.9L5.26474 1.9L5.26518 2ZM21.7999 4.2752L21.6999 4.27519V4.2752H21.7999ZM21.7999 13.0764L21.898 13.0961L21.8999 13.0863V13.0764H21.7999ZM20.8021 13.0764H20.7021V13.0863L20.704 13.0961L20.8021 13.0764ZM20.8021 11.9288H20.9021V11.8288H20.8021V11.9288ZM12.9288 11.9288V11.8288H12.8288V11.9288H12.9288ZM12.9288 19.832H12.8288V19.932H12.9288V19.832ZM14.4057 19.832V19.932H14.4156L14.4254 19.93L14.4057 19.832ZM14.7001 19.8605L14.7382 19.768L14.7382 19.768L14.7001 19.8605ZM14.929 20.0479L15.0121 19.9923L15.0121 19.9922L14.929 20.0479ZM15.0149 20.3309L14.9149 20.3309L15.0149 20.3309ZM14.4057 20.8298L14.4254 20.7318L14.4156 20.7298H14.4057V20.8298ZM5.26518 20.8298L5.26475 20.9298H5.26518V20.8298ZM5.26518 3.0278V2.9278L5.26438 2.9278L5.26518 3.0278ZM11.901 3.0278H12.001V2.9278H11.901V3.0278ZM4.02778 10.901H3.92778V11.001H4.02778V10.901ZM11.901 10.901V11.001H12.001V10.901H11.901ZM11.901 19.8021V19.9021H12.001V19.8021H11.901ZM11.901 11.9288H12.001L12.001 11.8288H11.901V11.9288ZM4.01777 11.9288V11.8288H3.91777V11.9288H4.01777ZM12.8989 10.901H12.7989V11.001H12.8989V10.901ZM12.8989 3.0278V2.9278H12.7989V3.0278H12.8989ZM20.7721 10.901V11.001H20.8721V10.901H20.7721ZM21.1014 17.8563L21.1211 17.7582L21.1124 17.7565L21.1034 17.7563L21.1014 17.8563ZM19.5746 17.8263L19.5766 17.7263L19.4746 17.7243V17.8263H19.5746ZM19.5746 18.5846H19.4746V18.6846H19.5746V18.5846ZM21.0815 18.5846V18.6846H21.0914L21.1012 18.6827L21.0815 18.5846ZM21.3759 18.6132L21.3377 18.7056H21.3377L21.3759 18.6132ZM21.6047 18.8006L21.5216 18.8562L21.5216 18.8562L21.6047 18.8006ZM21.6047 19.3666L21.5216 19.311L21.5216 19.311L21.6047 19.3666ZM21.3759 19.5541L21.414 19.6465H21.414L21.3759 19.5541ZM21.0815 19.5825L21.1012 19.4845L21.0914 19.4825H21.0815V19.5825ZM19.5547 19.5825V19.4825H19.4547V19.5825H19.5547ZM19.5547 20.3909H19.4547V20.4008L19.4567 20.4106L19.5547 20.3909ZM19.5262 20.6853L19.6186 20.7234L19.6186 20.7234L19.5262 20.6853ZM19.3388 20.9141L19.3944 20.9972L19.3944 20.9972L19.3388 20.9141ZM18.7728 20.9141L18.8284 20.831L18.8284 20.831L18.7728 20.9141ZM18.5853 20.6853L18.4929 20.7234L18.5853 20.6853ZM18.5568 20.3909L18.6549 20.4106L18.6568 20.4008V20.3909H18.5568ZM18.5568 19.5825H18.6568V19.4825H18.5568V19.5825ZM17.0301 19.5825V19.4825H17.0201L17.0104 19.4845L17.0301 19.5825ZM16.5068 19.3666L16.4237 19.4222L16.4237 19.4222L16.5068 19.3666ZM16.5068 18.8006L16.4237 18.7449L16.4237 18.745L16.5068 18.8006ZM16.7357 18.6132L16.7738 18.7056H16.7738L16.7357 18.6132ZM17.0301 18.5846L17.0104 18.6827L17.0201 18.6846H17.0301V18.5846ZM18.5568 18.5846V18.6846H18.6568V18.5846H18.5568ZM18.5568 17.8263H18.6568V17.7263H18.5568V17.8263ZM17.0301 17.8263L17.0104 17.9243L17.0201 17.9263H17.0301V17.8263ZM17.0301 16.8284V16.7284H17.0201L17.0104 16.7303L17.0301 16.8284ZM18.2375 16.8284V16.9284H18.4631L18.3116 16.7612L18.2375 16.8284ZM16.7007 15.1321L16.6262 15.1988L16.6266 15.1992L16.7007 15.1321ZM16.7407 14.4036L16.8075 14.4781L16.8075 14.478L16.7407 14.4036ZM17.4692 14.4435L17.3947 14.5102L17.395 14.5105L17.4692 14.4435ZM19.0558 16.1997L18.9816 16.2668L19.0552 16.3482L19.1294 16.2674L19.0558 16.1997ZM20.6225 14.4934L20.6961 14.5611L20.6969 14.5601L20.6225 14.4934ZM21.3509 14.4534L21.2841 14.5279L21.2841 14.5279L21.3509 14.4534ZM21.3908 15.1819L21.4652 15.2488L21.4653 15.2486L21.3908 15.1819ZM19.884 16.8584L19.8096 16.7915L19.6596 16.9584H19.884V16.8584ZM21.1014 16.8584V16.9584H21.1114L21.1211 16.9564L21.1014 16.8584ZM21.5242 16.9635L21.4609 17.0409L21.4609 17.0409L21.5242 16.9635ZM21.6617 17.1395L21.7521 17.0967V17.0967L21.6617 17.1395ZM21.6617 17.5752L21.7521 17.618L21.7521 17.618L21.6617 17.5752ZM21.5242 17.7511L21.4609 17.6737L21.4609 17.6737L21.5242 17.7511ZM6.45265 7.26883V7.16883H6.35265V7.26883H6.45265ZM7.72993 7.26883H7.82993V7.16883H7.72993V7.26883ZM6.45265 7.27882V7.37882H6.55265V7.27882H6.45265ZM7.72993 6.5902V6.6902H7.82993V6.5902H7.72993ZM8.41845 6.58031H8.31845V6.68031H8.41845V6.58031ZM8.41845 7.26883V7.16883H8.31845V7.26883H8.41845ZM6.21311 17.8063L6.28527 17.737L6.28245 17.7342L6.21311 17.8063ZM6.13618 17.6947L6.22821 17.6555L6.22821 17.6555L6.13618 17.6947ZM6.10913 17.5618L6.00913 17.5618V17.5618L6.10913 17.5618ZM6.21315 17.3174L6.28253 17.3894L6.28386 17.3881L6.21315 17.3174ZM7.58027 15.9503L7.65098 16.021L7.7217 15.9503L7.65098 15.8796L7.58027 15.9503ZM6.20314 14.5733L6.13242 14.644L6.13243 14.644L6.20314 14.5733ZM6.20314 14.0843L6.27383 14.1551L6.27385 14.155L6.20314 14.0843ZM6.6921 14.0843L6.62139 14.1551L6.62165 14.1553L6.6921 14.0843ZM8.07921 15.4614L8.00876 15.5323L8.07998 15.603L8.15043 15.5316L8.07921 15.4614ZM9.44627 14.0743L9.37555 14.0036L9.37505 14.0041L9.44627 14.0743ZM9.93521 14.0743L9.8645 14.145L9.86451 14.145L9.93521 14.0743ZM9.93521 14.5633L10.0059 14.634L10.0059 14.634L9.93521 14.5633ZM8.55816 15.9403L8.48745 15.8696L8.41648 15.9406L8.4877 16.0113L8.55816 15.9403ZM9.94518 17.3174L10.0159 17.2466L10.0156 17.2464L9.94518 17.3174ZM9.94518 17.8063L9.8745 17.7356L9.87447 17.7356L9.94518 17.8063ZM9.45624 17.8063L9.38553 17.877L9.45624 17.8063ZM8.07919 16.4293L8.1499 16.3585L8.07919 16.2878L8.00848 16.3585L8.07919 16.4293ZM6.70207 17.8063L6.63135 17.7356L6.62997 17.737L6.70207 17.8063ZM6.59046 17.8833L6.55127 17.7913H6.55127L6.59046 17.8833ZM19.5547 1.9H5.26518V2.1H19.5547V1.9ZM21.8999 4.2752C21.9 2.97555 20.8556 1.9171 19.556 1.90001L19.5534 2.09999C20.7435 2.11565 21.7 3.08496 21.6999 4.27519L21.8999 4.2752ZM21.8999 13.0764V4.2752H21.6999V13.0764H21.8999ZM21.301 13.585C21.591 13.585 21.8408 13.3804 21.898 13.0961L21.7019 13.0567C21.6635 13.2476 21.4957 13.385 21.301 13.385V13.585ZM20.704 13.0961C20.7612 13.3804 21.011 13.585 21.301 13.585V13.385C21.1063 13.385 20.9385 13.2476 20.9001 13.0567L20.704 13.0961ZM20.7021 11.9288V13.0764H20.9021V11.9288H20.7021ZM12.9288 12.0288H20.8021V11.8288H12.9288V12.0288ZM13.0288 19.832V11.9288H12.8288V19.832H13.0288ZM14.4057 19.732H12.9288V19.932H14.4057V19.732ZM14.7382 19.768C14.6268 19.7221 14.5042 19.7102 14.386 19.734L14.4254 19.93C14.5048 19.9141 14.5871 19.9221 14.662 19.9529L14.7382 19.768ZM15.0121 19.9922C14.945 19.892 14.8497 19.814 14.7382 19.768L14.662 19.9529C14.7368 19.9838 14.8008 20.0362 14.8459 20.1035L15.0121 19.9922ZM15.1149 20.3309C15.1149 20.2103 15.0791 20.0925 15.0121 19.9923L14.8458 20.1034C14.8909 20.1707 14.9149 20.2499 14.9149 20.3309L15.1149 20.3309ZM15.012 20.6695C15.0791 20.5693 15.1149 20.4515 15.1149 20.3309L14.9149 20.3309C14.9149 20.4118 14.8908 20.491 14.8458 20.5583L15.012 20.6695ZM14.7382 20.8937C14.8497 20.8477 14.9449 20.7697 15.012 20.6695L14.8458 20.5583C14.8008 20.6256 14.7368 20.678 14.6619 20.7089L14.7382 20.8937ZM14.386 20.9279C14.5042 20.9516 14.6268 20.9397 14.7382 20.8937L14.6619 20.7089C14.5871 20.7397 14.5047 20.7477 14.4254 20.7318L14.386 20.9279ZM5.26518 20.9298H14.4057V20.7298H5.26518V20.9298ZM2.9 18.5547C2.9 19.8624 3.95704 20.9242 5.26475 20.9298L5.26562 20.7298C4.06804 20.7246 3.1 19.7523 3.1 18.5547H2.9ZM2.9 4.2752V18.5547H3.1V4.2752H2.9ZM5.26474 1.9C3.95704 1.90578 2.9 2.96749 2.9 4.2752H3.1C3.1 3.07761 4.06804 2.10529 5.26563 2.1L5.26474 1.9ZM5.26518 3.1278H11.901V2.9278H5.26518V3.1278ZM4.12778 4.2752C4.12778 3.64504 4.63591 3.13285 5.26599 3.1278L5.26438 2.9278C4.52448 2.93374 3.92778 3.53521 3.92778 4.2752H4.12778ZM4.12778 10.901V4.2752H3.92778V10.901H4.12778ZM11.901 10.801H4.02778V11.001H11.901V10.801ZM11.801 3.0278V10.901H12.001V3.0278H11.801ZM11.901 19.7021H5.26518V19.9021H11.901V19.7021ZM11.801 11.9288L11.801 19.8021H12.001L12.001 11.9288H11.801ZM4.01777 12.0288H11.901V11.8288H4.01777V12.0288ZM4.11777 18.5548V11.9288H3.91777V18.5548H4.11777ZM5.26518 19.7021C4.63152 19.7021 4.11777 19.1884 4.11777 18.5548H3.91777C3.91777 19.2989 4.52109 19.9021 5.26518 19.9021V19.7021ZM12.9989 10.901V3.0278H12.7989V10.901H12.9989ZM20.7721 10.801H12.8989V11.001H20.7721V10.801ZM20.6721 4.27522V10.901H20.8721V4.27522H20.6721ZM19.5248 3.1278C20.1584 3.1278 20.6721 3.64151 20.6721 4.27522H20.8721C20.8721 3.53107 20.2689 2.9278 19.5248 2.9278V3.1278ZM12.8989 3.1278H19.5248V2.9278H12.8989V3.1278ZM21.0817 17.9543C21.1701 17.9721 21.2613 17.97 21.3488 17.9482L21.3005 17.7542C21.2418 17.7688 21.1805 17.7702 21.1211 17.7582L21.0817 17.9543ZM19.5727 17.9262L21.0995 17.9562L21.1034 17.7563L19.5766 17.7263L19.5727 17.9262ZM19.6746 18.5846V17.8263H19.4746V18.5846H19.6746ZM21.0815 18.4846H19.5746V18.6846H21.0815V18.4846ZM21.414 18.5207C21.3026 18.4747 21.18 18.4629 21.0618 18.4866L21.1012 18.6827C21.1805 18.6667 21.2629 18.6747 21.3377 18.7056L21.414 18.5207ZM21.6878 18.7449C21.6207 18.6448 21.5255 18.5667 21.414 18.5207L21.3377 18.7056C21.4126 18.7365 21.4766 18.7889 21.5216 18.8562L21.6878 18.7449ZM21.7907 19.0836C21.7907 18.963 21.7549 18.8451 21.6878 18.7449L21.5216 18.8562C21.5667 18.9235 21.5907 19.0026 21.5907 19.0836H21.7907ZM21.6878 19.4223C21.7549 19.3221 21.7907 19.2042 21.7907 19.0836H21.5907C21.5907 19.1646 21.5667 19.2437 21.5216 19.311L21.6878 19.4223ZM21.414 19.6465C21.5255 19.6005 21.6208 19.5224 21.6878 19.4222L21.5216 19.311C21.4766 19.3783 21.4126 19.4307 21.3377 19.4616L21.414 19.6465ZM21.0618 19.6806C21.18 19.7044 21.3026 19.6925 21.414 19.6465L21.3377 19.4616C21.2629 19.4925 21.1806 19.5005 21.1012 19.4845L21.0618 19.6806ZM19.5547 19.6825H21.0815V19.4825H19.5547V19.6825ZM19.6547 20.3909V19.5825H19.4547V20.3909H19.6547ZM19.6186 20.7234C19.6646 20.612 19.6765 20.4894 19.6528 20.3712L19.4567 20.4106C19.4726 20.49 19.4646 20.5723 19.4338 20.6471L19.6186 20.7234ZM19.3944 20.9972C19.4946 20.9301 19.5726 20.8349 19.6186 20.7234L19.4338 20.6471C19.4029 20.722 19.3505 20.7859 19.2832 20.831L19.3944 20.9972ZM19.0558 21.1C19.1763 21.1 19.2942 21.0642 19.3944 20.9972L19.2832 20.831C19.2159 20.876 19.1368 20.9 19.0558 20.9V21.1ZM18.7172 20.9972C18.8174 21.0642 18.9352 21.1 19.0558 21.1V20.9C18.9748 20.9 18.8957 20.876 18.8284 20.831L18.7172 20.9972ZM18.4929 20.7234C18.5389 20.8349 18.617 20.9302 18.7172 20.9972L18.8284 20.831C18.7611 20.786 18.7086 20.722 18.6778 20.6471L18.4929 20.7234ZM18.4588 20.3712C18.435 20.4894 18.4469 20.612 18.4929 20.7234L18.6778 20.6471C18.6469 20.5723 18.6389 20.49 18.6549 20.4106L18.4588 20.3712ZM18.4568 19.5825V20.3909H18.6568V19.5825H18.4568ZM17.0301 19.6825H18.5568V19.4825H17.0301V19.6825ZM16.6975 19.6465C16.809 19.6925 16.9316 19.7043 17.0498 19.6806L17.0104 19.4845C16.931 19.5005 16.8487 19.4925 16.7738 19.4616L16.6975 19.6465ZM16.4237 19.4222C16.4908 19.5224 16.5861 19.6005 16.6975 19.6465L16.7738 19.4616C16.6989 19.4307 16.6349 19.3783 16.5899 19.311L16.4237 19.4222ZM16.3209 19.0836C16.3209 19.2042 16.3566 19.322 16.4237 19.4222L16.5899 19.311C16.5449 19.2437 16.5209 19.1646 16.5209 19.0836H16.3209ZM16.4237 18.745C16.3566 18.8452 16.3209 18.963 16.3209 19.0836H16.5209C16.5209 19.0026 16.5449 18.9235 16.5899 18.8562L16.4237 18.745ZM16.6975 18.5207C16.5861 18.5667 16.4908 18.6447 16.4237 18.7449L16.5899 18.8562C16.6349 18.7889 16.6989 18.7365 16.7738 18.7056L16.6975 18.5207ZM17.0498 18.4866C16.9316 18.4629 16.809 18.4747 16.6975 18.5207L16.7738 18.7056C16.8487 18.6747 16.931 18.6667 17.0104 18.6827L17.0498 18.4866ZM18.5568 18.4846H17.0301V18.6846H18.5568V18.4846ZM18.4568 17.8263V18.5846H18.6568V17.8263H18.4568ZM17.0301 17.9263H18.5568V17.7263H17.0301V17.9263ZM16.5215 17.3273C16.5215 17.6174 16.726 17.8672 17.0104 17.9243L17.0498 17.7282C16.8588 17.6898 16.7215 17.5222 16.7215 17.3273H16.5215ZM17.0104 16.7303C16.726 16.7875 16.5215 17.0373 16.5215 17.3273H16.7215C16.7215 17.1326 16.8588 16.9648 17.0498 16.9264L17.0104 16.7303ZM18.2375 16.7284H17.0301V16.9284H18.2375V16.7284ZM16.6266 15.1992L18.1634 16.8955L18.3116 16.7612L16.7748 15.0649L16.6266 15.1992ZM16.674 14.3291C16.4206 14.5561 16.3994 14.9454 16.6262 15.1988L16.7752 15.0654C16.622 14.8942 16.6364 14.6313 16.8075 14.4781L16.674 14.3291ZM17.5437 14.3767C17.3167 14.1235 16.9272 14.1021 16.674 14.3291L16.8075 14.478C16.9784 14.3248 17.2414 14.3392 17.3947 14.5102L17.5437 14.3767ZM19.13 16.1327L17.5434 14.3764L17.395 14.5105L18.9816 16.2668L19.13 16.1327ZM20.5488 14.4258L18.9821 16.1321L19.1294 16.2674L20.6961 14.5611L20.5488 14.4258ZM21.4176 14.379C21.1643 14.1519 20.7749 14.1733 20.548 14.4267L20.6969 14.5601C20.8501 14.3891 21.1131 14.3746 21.2841 14.5279L21.4176 14.379ZM21.4653 15.2486C21.6922 14.9953 21.671 14.606 21.4176 14.379L21.2841 14.5279C21.4552 14.6812 21.4696 14.9441 21.3163 15.1152L21.4653 15.2486ZM19.9584 16.9252L21.4652 15.2488L21.3165 15.1151L19.8096 16.7915L19.9584 16.9252ZM21.1014 16.7584H19.884V16.9584H21.1014V16.7584ZM21.3488 16.7664C21.2613 16.7446 21.1701 16.7425 21.0817 16.7603L21.1211 16.9564C21.1805 16.9445 21.2418 16.9458 21.3005 16.9605L21.3488 16.7664ZM21.5876 16.8862C21.5178 16.8291 21.4363 16.7881 21.3488 16.7664L21.3005 16.9605C21.3593 16.9751 21.414 17.0026 21.4609 17.0409L21.5876 16.8862ZM21.7521 17.0967C21.7135 17.0152 21.6573 16.9433 21.5876 16.8862L21.4609 17.0409C21.5077 17.0793 21.5454 17.1275 21.5714 17.1823L21.7521 17.0967ZM21.8107 17.3573C21.8107 17.2672 21.7907 17.1781 21.7521 17.0967L21.5714 17.1823C21.5973 17.237 21.6107 17.2968 21.6107 17.3573H21.8107ZM21.7521 17.618C21.7907 17.5365 21.8107 17.4475 21.8107 17.3573H21.6107C21.6107 17.4178 21.5973 17.4776 21.5714 17.5323L21.7521 17.618ZM21.5876 17.8284C21.6573 17.7713 21.7135 17.6994 21.7521 17.618L21.5714 17.5323C21.5454 17.5871 21.5077 17.6353 21.4609 17.6737L21.5876 17.8284ZM21.3488 17.9482C21.4363 17.9265 21.5178 17.8856 21.5876 17.8284L21.4609 17.6737C21.414 17.7121 21.3593 17.7395 21.3005 17.7542L21.3488 17.9482ZM6.45265 7.36883H7.72993V7.16883H6.45265V7.36883ZM6.55265 7.27882V7.26883H6.35265V7.27882H6.55265ZM6.00834 6.93451C6.00834 7.17989 6.20727 7.37882 6.45265 7.37882V7.17882C6.31772 7.17882 6.20834 7.06943 6.20834 6.93451H6.00834ZM6.45265 6.4902C6.20727 6.4902 6.00834 6.68913 6.00834 6.93451H6.20834C6.20834 6.79959 6.31772 6.6902 6.45265 6.6902V6.4902ZM7.72993 6.4902H6.45265V6.6902H7.72993V6.4902ZM7.62993 5.303V6.5902H7.82993V5.303H7.62993ZM8.07414 4.85871C7.82875 4.85871 7.62993 5.05767 7.62993 5.303H7.82993C7.82993 5.16807 7.93927 5.05871 8.07414 5.05871V4.85871ZM8.51845 5.303C8.51845 5.05764 8.31952 4.85871 8.07414 4.85871V5.05871C8.20907 5.05871 8.31845 5.1681 8.31845 5.303H8.51845ZM8.51845 6.58031V5.303H8.31845V6.58031H8.51845ZM9.69566 6.48031H8.41845V6.68031H9.69566V6.48031ZM10.14 6.92452C10.14 6.6791 9.941 6.48031 9.69566 6.48031V6.68031C9.83062 6.68031 9.93997 6.78963 9.93997 6.92452H10.14ZM9.69566 7.36883C9.94103 7.36883 10.14 7.1699 10.14 6.92452H9.93997C9.93997 7.05944 9.83058 7.16883 9.69566 7.16883V7.36883ZM8.41845 7.36883H9.69566V7.16883H8.41845V7.36883ZM8.51845 8.54611V7.26883H8.31845V8.54611H8.51845ZM8.07414 8.99032C8.31948 8.99032 8.51845 8.79153 8.51845 8.54611H8.31845C8.31845 8.681 8.2091 8.79032 8.07414 8.79032V8.99032ZM7.62993 8.54611C7.62993 8.7915 7.82881 8.99032 8.07414 8.99032V8.79032C7.93925 8.79032 7.82993 8.68103 7.82993 8.54611H7.62993ZM7.62993 7.26883V8.54611H7.82993V7.26883H7.62993ZM6.14101 17.8756C6.18198 17.9182 6.23114 17.9521 6.28554 17.9753L6.36391 17.7913C6.33429 17.7787 6.30752 17.7602 6.28521 17.737L6.14101 17.8756ZM6.04416 17.7338C6.0673 17.7882 6.10118 17.8374 6.14377 17.8784L6.28245 17.7342C6.25925 17.7119 6.2408 17.6852 6.22821 17.6555L6.04416 17.7338ZM6.00913 17.5618C6.00911 17.6209 6.02103 17.6794 6.04416 17.7338L6.22821 17.6555C6.21561 17.6259 6.20912 17.5941 6.20913 17.5619L6.00913 17.5618ZM6.04422 17.3899C6.02108 17.4442 6.00915 17.5027 6.00913 17.5618L6.20913 17.5619C6.20914 17.5297 6.21564 17.4978 6.22825 17.4682L6.04422 17.3899ZM6.14378 17.2453C6.10122 17.2863 6.06735 17.3355 6.04422 17.3899L6.22825 17.4682C6.24086 17.4385 6.25932 17.4117 6.28252 17.3894L6.14378 17.2453ZM7.50956 15.8796L6.14244 17.2466L6.28386 17.3881L7.65098 16.021L7.50956 15.8796ZM6.13243 14.644L7.50957 16.021L7.65098 15.8796L6.27385 14.5026L6.13243 14.644ZM6.13244 14.0136C5.95835 14.1876 5.95838 14.4699 6.13242 14.644L6.27385 14.5026C6.17788 14.4066 6.17791 14.2509 6.27383 14.1551L6.13244 14.0136ZM6.76281 14.0136C6.58871 13.8395 6.30651 13.8395 6.13242 14.0136L6.27385 14.155C6.36983 14.0591 6.52539 14.0591 6.62139 14.1551L6.76281 14.0136ZM8.14966 15.3904L6.76255 14.0134L6.62165 14.1553L8.00876 15.5323L8.14966 15.3904ZM9.37505 14.0041L8.00799 15.3912L8.15043 15.5316L9.51749 14.1445L9.37505 14.0041ZM10.0059 14.0036C9.83183 13.8295 9.54964 13.8295 9.37555 14.0036L9.51699 14.145C9.61296 14.0491 9.7685 14.049 9.8645 14.145L10.0059 14.0036ZM10.0059 14.634C10.18 14.4599 10.18 14.1777 10.0059 14.0036L9.86451 14.145C9.96049 14.241 9.9605 14.3966 9.8645 14.4926L10.0059 14.634ZM8.62887 16.011L10.0059 14.634L9.8645 14.4926L8.48745 15.8696L8.62887 16.011ZM10.0156 17.2464L8.62861 15.8693L8.4877 16.0113L9.87473 17.3883L10.0156 17.2464ZM10.0159 17.877C10.19 17.703 10.19 17.4207 10.0159 17.2466L9.87448 17.3881C9.97048 17.4841 9.97045 17.6397 9.8745 17.7356L10.0159 17.877ZM9.38553 17.877C9.55963 18.0511 9.84181 18.0511 10.0159 17.877L9.87447 17.7356C9.7785 17.8316 9.62295 17.8316 9.52695 17.7356L9.38553 17.877ZM8.00848 16.5L9.38553 17.877L9.52695 17.7356L8.1499 16.3585L8.00848 16.5ZM6.77278 17.877L8.1499 16.5L8.00848 16.3585L6.63136 17.7356L6.77278 17.877ZM6.62964 17.9753C6.68404 17.9521 6.7332 17.9182 6.77417 17.8756L6.62997 17.737C6.60766 17.7602 6.58089 17.7787 6.55127 17.7913L6.62964 17.9753ZM6.45759 18.0104C6.51672 18.0104 6.57524 17.9985 6.62964 17.9753L6.55127 17.7913C6.52165 17.8039 6.48979 17.8104 6.45759 17.8104V18.0104ZM6.28554 17.9753C6.33994 17.9985 6.39846 18.0104 6.45759 18.0104V17.8104C6.4254 17.8104 6.39353 17.8039 6.36391 17.7913L6.28554 17.9753ZM18.4869 6.4902H15.2438V6.6902H18.4869V6.4902ZM18.9313 6.93451C18.9313 6.68913 18.7323 6.4902 18.4869 6.4902V6.6902C18.6219 6.6902 18.7313 6.79959 18.7313 6.93451H18.9313ZM18.4869 7.37882C18.7323 7.37882 18.9313 7.17989 18.9313 6.93451H18.7313C18.7313 7.06943 18.6219 7.17882 18.4869 7.17882V7.37882ZM15.2438 7.37882H18.4869V7.17882H15.2438V7.37882ZM14.7996 6.93451C14.7996 7.17985 14.9984 7.37882 15.2438 7.37882V7.17882C15.109 7.17882 14.9996 7.06947 14.9996 6.93451H14.7996ZM15.2438 6.4902C14.9984 6.4902 14.7996 6.68917 14.7996 6.93451H14.9996C14.9996 6.79955 15.109 6.6902 15.2438 6.6902V6.4902Z" />
</svg>