<svg xmlns="http://www.w3.org/2000/svg" viewBox="0 0 19 18">
  <path
    d="M6.74897 14.9994C6.55195 14.9994 6.35686 15.0383 6.17485 15.1137C5.99285 15.1892 5.82748 15.2997 5.6882 15.4391C5.54892 15.5784 5.43844 15.7438 5.36309 15.9259C5.28774 16.1079 5.24898 16.303 5.24903 16.5001C5.24908 16.6971 5.28794 16.8922 5.36338 17.0742C5.43882 17.2562 5.54938 17.4216 5.68873 17.5608C5.82808 17.7001 5.9935 17.8106 6.17555 17.8859C6.35759 17.9613 6.5527 18 6.74972 18C7.14763 17.9999 7.5292 17.8417 7.81049 17.5603C8.09178 17.2789 8.24976 16.8972 8.24966 16.4993C8.24956 16.1014 8.09139 15.7198 7.80996 15.4385C7.52853 15.1572 7.14688 14.9993 6.74897 14.9994ZM14.2487 14.9994C14.0516 14.9994 13.8565 15.0383 13.6745 15.1137C13.4925 15.1892 13.3272 15.2997 13.1879 15.4391C13.0486 15.5784 12.9381 15.7438 12.8628 15.9259C12.7874 16.1079 12.7487 16.303 12.7487 16.5001C12.7488 16.6971 12.7876 16.8922 12.8631 17.0742C12.9385 17.2562 13.0491 17.4216 13.1884 17.5608C13.3278 17.7001 13.4932 17.8106 13.6752 17.8859C13.8573 17.9613 14.0524 18 14.2494 18C14.6473 17.9999 15.0289 17.8417 15.3102 17.5603C15.5915 17.2789 15.7494 16.8972 15.7493 16.4993C15.7492 16.1014 15.5911 15.7198 15.3096 15.4385C15.0282 15.1572 14.6466 14.9993 14.2487 14.9994ZM5.07729 8.99963L3.87209 4.49981H17.019L15.8131 8.99963H5.07729ZM18.7492 3.74984C18.7492 3.55094 18.6702 3.36018 18.5296 3.21954C18.3889 3.07889 18.1982 2.99988 17.9993 2.99988H3.46936L2.66614 0H0V1.49994H1.51494L4.93029 14.2494H16.4986V12.7495H6.0815L5.47927 10.4996H16.9643L17.2493 9.43611L18.7492 3.83759L18.7312 3.83309C18.735 3.80459 18.7485 3.77984 18.7485 3.74984H18.7492Z"
    fill="currentColor"
  ></path>
</svg>
