<svg xmlns="http://www.w3.org/2000/svg" viewBox="0 0 44 44">
<path d="M35.6688 10.9951H37.75C38.3468 10.9951 38.9191 11.2321 39.341 11.6541C39.763 12.076 40 12.6483 40 13.2451V24.4951C40 25.0918 39.763 25.6641 39.341 26.086C38.9191 26.508 38.3468 26.7451 37.75 26.7451H33.6539L24.2388 13.1438L23.1441 11.5936L16.4436 14.6873C16.0106 14.8872 15.5253 14.9443 15.0576 14.8504C13.0124 14.4398 12.3261 13.7243 12.9989 12.7028C13.6503 11.7139 16.4223 9.72493 21.316 6.73356C21.4443 6.65481 21.577 6.58731 21.7131 6.53331C23.7685 5.56581 26.1141 5.91456 28.7489 7.58068C30.9271 8.96179 33.2476 10.1064 35.6688 10.9951ZM12.5905 25.6617L18.976 32.1214C19.2513 32.4002 19.4491 32.746 19.5497 33.1246C19.6504 33.5033 19.6504 33.9016 19.5498 34.2803L19.228 35.4987C19.1556 35.7719 19.0174 36.0233 18.8257 36.2309C18.6339 36.4386 18.3943 36.5962 18.1277 36.6902C17.8611 36.7841 17.5756 36.8115 17.296 36.7699C17.0164 36.7283 16.7512 36.619 16.5235 36.4516L8.31327 30.4126C8.05309 30.2211 7.83719 29.9759 7.68023 29.6936C7.52327 29.4113 7.42894 29.0985 7.40364 28.7765C7.37834 28.4545 7.42268 28.1308 7.53363 27.8274C7.64458 27.5241 7.81955 27.2481 8.04664 27.0184L9.38877 25.6594C9.59803 25.4477 9.84723 25.2796 10.1219 25.1649C10.3966 25.0501 10.6914 24.991 10.9891 24.991C11.2868 24.991 11.5815 25.0501 11.8562 25.1649C12.1309 25.2796 12.3801 25.4477 12.5894 25.6594L12.5905 25.6617Z" fill="currentColor"/>
<path d="M5.53675 26.6263C5.08914 26.4767 4.69991 26.1901 4.42412 25.8071C4.14834 25.4242 3.99996 24.9641 4 24.4922V13.2422C4 12.6454 4.23705 12.0732 4.65901 11.6512C5.08097 11.2292 5.65326 10.9922 6.25 10.9922H11.4385L11.4295 11.0001C11.1163 11.2822 10.868 11.629 10.7018 12.0164C10.5357 12.4038 10.4555 12.8227 10.467 13.2441C10.4784 13.6655 10.5812 14.0794 10.7681 14.4572C10.9551 14.8351 11.2218 15.1678 11.5499 15.4326C12.3608 16.0871 13.3271 16.5208 14.3551 16.6917C15.383 16.8626 16.4377 16.7649 17.4168 16.4079L22.4781 14.5629L26.0275 19.6929C26.1366 19.7976 26.235 19.9129 26.3211 20.0372L32.5424 29.0282C32.7261 29.2938 32.8506 29.5959 32.9072 29.9139C32.9638 30.2319 32.9513 30.5584 32.8705 30.8711C32.7897 31.1838 32.6425 31.4755 32.4389 31.7263C32.2354 31.977 31.9802 32.1811 31.6908 32.3244L21.7525 37.2418C21.2913 37.4702 20.785 37.5264 20.3125 37.4308L20.6804 37.0584C21.513 36.2161 21.98 35.0794 21.98 33.8949C21.98 32.7105 21.513 31.5738 20.6804 30.7314L13.4804 23.4459C13.1665 23.1282 12.7926 22.876 12.3805 22.7039C11.9684 22.5317 11.5262 22.4431 11.0796 22.4431C10.633 22.4431 10.1908 22.5317 9.77873 22.7039C9.36662 22.876 8.99278 23.1282 8.67888 23.4459L5.53675 26.6263Z" fill="currentColor"/>
</svg>
