<svg xmlns="http://www.w3.org/2000/svg" viewBox="0.75 0.8 10.5 10.31">
  <path
    fill-rule="evenodd"
    clip-rule="evenodd"
    d="M0.75 9.70071C0.75 10.5035 1.41284 11.1543 2.2305 11.1543H2.23108H7.61525C8.008 11.1544 8.38472 11.0014 8.6625 10.7288C8.94027 10.4561 9.09633 10.0863 9.09633 9.70071V9.03979H9.84592C10.6211 9.03979 11.2497 8.42294 11.25 7.66181V2.82799C11.25 1.73315 10.3462 0.845523 9.23108 0.845207H4.30775L4.21558 0.84807C3.48292 0.895034 2.90425 1.49296 2.90425 2.22376V2.96029L2.2305 2.95972C1.83775 2.95972 1.46109 3.11294 1.18342 3.38566C0.905758 3.65839 0.749846 4.02826 0.75 4.41387V9.70071ZM9.84591 8.24713H9.09633V4.41387C9.09633 4.02826 8.94027 3.65845 8.66249 3.38583C8.38472 3.11321 8.008 2.96014 7.61524 2.96029H3.71158V2.22376C3.71158 1.90017 3.97816 1.63843 4.30716 1.63843H9.23049C9.89958 1.63843 10.4421 2.1705 10.4421 2.82742V7.66123C10.4421 7.98482 10.1755 8.24713 9.84591 8.24713ZM2.2305 10.3611H7.61583C7.98742 10.3611 8.289 10.0655 8.289 9.70072V4.41387C8.289 4.04904 7.98742 3.75294 7.61583 3.75294H2.23167C1.8595 3.75294 1.5585 4.04904 1.5585 4.41387V9.69957C1.5585 10.065 1.8595 10.3605 2.23109 10.3605L2.2305 10.3611ZM4.51949 8.37886C4.51949 8.59764 4.69974 8.77519 4.92316 8.77519L4.97741 8.77175C5.17516 8.74541 5.32741 8.57932 5.32741 8.37886V7.45391L6.26949 7.45333C6.49232 7.45333 6.67316 7.27636 6.67316 7.05701L6.66966 7.00317C6.64282 6.80959 6.47366 6.66068 6.26949 6.66068H5.32741L5.32682 5.73515C5.32682 5.63004 5.28429 5.52923 5.20859 5.45491C5.13289 5.38058 5.03022 5.33882 4.92316 5.33882L4.86832 5.34226C4.67116 5.36861 4.51949 5.5347 4.51949 5.73515V6.66068H3.57682C3.35399 6.66068 3.17316 6.83822 3.17316 7.05701L3.17666 7.11084C3.20349 7.30443 3.37266 7.45391 3.57682 7.45391H4.51949V8.37886Z"
    fill="currentColor"
  ></path>
</svg>
