<svg xmlns="http://www.w3.org/2000/svg" viewBox="0 0 19 19">
  <path
    d="M9.4642 14.164C9.4642 14.164 5.89964 17.7391 5.24236 18.3917C4.58742 19.0455 3.68719 18.6453 3.43484 18.3917L0.418377 15.3718C0.028699 14.9821 -0.285861 14.2638 0.418377 13.5608C1.12377 12.8577 4.63906 9.33304 4.63906 9.33304L1.62729 6.31308C1.45476 6.14172 1.48291 5.70275 1.36321 5.24031C1.24231 4.7767 0.788089 2.60649 0.688333 1.83889C0.588577 1.07011 0.871442 0.897571 1.01462 0.753211C1.159 0.610031 1.56629 0.50204 1.92776 0.580674C2.28811 0.658129 4.82918 1.08538 5.27519 1.20861C5.7212 1.33185 6.23178 1.26379 6.4489 1.48091L9.46416 4.49971C9.46416 4.49971 12.7658 1.19101 13.382 0.577135C13.9982 -0.036716 15.017 -0.198681 15.4923 0.275484C15.8104 0.592403 18.2236 3.0126 18.5076 3.29428C18.7893 3.57715 19.0252 4.59123 18.2059 5.40813C17.3855 6.22621 14.2869 9.3342 14.2869 9.3342C14.2869 9.3342 17.4243 12.4786 17.9043 12.9575C18.3856 13.4363 18.5123 14.7685 17.9043 15.3729C17.2975 15.9797 16.1426 17.1406 15.4923 17.7885C14.8421 18.4364 13.6343 18.3401 13.0815 17.7885C12.5287 17.2368 9.46416 14.1652 9.46416 14.1652L9.4642 14.164ZM5.84682 13.5607L4.03814 11.7485L3.13439 12.6546L4.94191 14.4657L5.84568 13.5607H5.84682ZM4.03812 15.3718C3.85031 15.1863 2.22944 13.5608 2.22944 13.5608L1.92779 13.8624C1.24118 14.5455 1.28342 14.427 1.62614 14.7685C1.96769 15.1089 3.6778 16.8249 4.03812 17.184C4.39846 17.542 4.59328 17.231 4.94189 16.8824C5.29166 16.535 8.55929 13.2579 8.55929 13.2579L5.54519 10.2391L4.94189 10.8424L6.75057 12.6546L4.03812 15.3718ZM3.73649 1.78367C3.10855 1.66513 2.56984 1.53602 2.22944 1.48202C1.88788 1.42684 1.59328 1.94797 1.62616 2.0853C1.65903 2.22378 1.6731 2.16627 1.92781 3.59587C2.18252 5.02546 2.53109 4.80245 2.53109 4.80245L4.94191 2.38693C4.94777 2.33763 4.83862 2.03952 3.73651 1.78247L3.73649 1.78367ZM14.5886 4.80365L12.78 2.99143L12.1767 3.59589L13.9854 5.40693L14.5886 4.80365ZM13.0816 6.31304L11.2729 4.50082L10.3691 5.40693L13.3821 8.42688C13.3821 8.42688 16.9396 4.86114 17.3023 4.50082C17.6638 4.14048 17.6051 4.20035 17.3023 3.89754C16.9971 3.59473 15.1497 1.74027 14.8903 1.48204C14.6297 1.22382 14.6321 1.13815 14.287 1.48204L13.6837 2.08532L15.4924 3.89754L13.0816 6.31306L13.0816 6.31304ZM6.14847 2.99143L3.13321 6.01139L12.1767 15.0701L15.1908 12.0502L6.14847 2.99143ZM14.5875 16.8824C14.9924 16.4798 16.6767 14.7861 16.9995 14.4657C17.3222 14.1452 16.9091 13.7708 16.699 13.5608L16.0957 12.9563L13.0816 15.9763C13.0581 15.9481 13.2553 16.1253 13.6837 16.5795C13.983 16.8964 14.1849 17.2838 14.5875 16.8824Z"
    fill="currentColor"
  ></path>
</svg>
