<svg xmlns="http://www.w3.org/2000/svg" viewBox="0 0 24 24" fill="currentColor">
	<path
		d="M3.75 4.5H18V3H3C2.80109 3 2.61032 3.07902 2.46967 3.21967C2.32902 3.36032 2.25 3.55109 2.25 3.75V17.25C2.25 17.4489 2.32902 17.6397 2.46967 17.7803C2.61032 17.921 2.80109 18 3 18H9.75V16.5H3.75V4.5ZM20.25 16.5H14.25C14.043 16.5 13.8555 16.584 13.719 16.7197L9.96975 20.4697L11.0302 21.5303L14.5605 18H21C21.1989 18 21.3897 17.921 21.5303 17.7803C21.671 17.6397 21.75 17.4489 21.75 17.25V6.75H20.25V16.5Z" />
	<path
		d="M10.8749 10.5C10.871 10.6501 10.8971 10.7995 10.9519 10.9394C11.0066 11.0792 11.0888 11.2067 11.1936 11.3143C11.2983 11.4219 11.4236 11.5074 11.5619 11.5658C11.7003 11.6242 11.849 11.6544 11.9991 11.6544C12.1493 11.6545 12.298 11.6244 12.4364 11.5661C12.5748 11.5078 12.7001 11.4224 12.8049 11.3148C12.9098 11.2073 12.9921 11.0799 13.0469 10.9401C13.1017 10.8003 13.128 10.6509 13.1241 10.5008C13.1167 10.2075 12.995 9.92878 12.7849 9.72398C12.5749 9.51918 12.2932 9.40452 11.9999 9.40442C11.7065 9.40432 11.4248 9.5188 11.2146 9.72346C11.0045 9.92812 10.8826 10.2068 10.8749 10.5ZM5.6249 10.5C5.62097 10.6501 5.64714 10.7995 5.70187 10.9394C5.7566 11.0792 5.83877 11.2067 5.94355 11.3143C6.04833 11.4219 6.17359 11.5074 6.31195 11.5658C6.4503 11.6242 6.59896 11.6544 6.74914 11.6544C6.89932 11.6545 7.04799 11.6244 7.18638 11.5661C7.32478 11.5078 7.4501 11.4224 7.55495 11.3148C7.6598 11.2073 7.74206 11.0799 7.79688 10.9401C7.8517 10.8003 7.87797 10.6509 7.87415 10.5008C7.86667 10.2075 7.74495 9.92878 7.53494 9.72398C7.32493 9.51918 7.04323 9.40452 6.74989 9.40442C6.45655 9.40432 6.17477 9.5188 5.96462 9.72346C5.75447 9.92812 5.63257 10.2068 5.6249 10.5ZM16.1249 10.5C16.121 10.6501 16.1471 10.7995 16.2019 10.9394C16.2566 11.0792 16.3388 11.2067 16.4436 11.3143C16.5483 11.4219 16.6736 11.5074 16.8119 11.5658C16.9503 11.6242 17.099 11.6544 17.2491 11.6544C17.3993 11.6545 17.548 11.6244 17.6864 11.5661C17.8248 11.5078 17.9501 11.4224 18.0549 11.3148C18.1598 11.2073 18.2421 11.0799 18.2969 10.9401C18.3517 10.8003 18.378 10.6509 18.3741 10.5008C18.3667 10.2075 18.245 9.92878 18.0349 9.72398C17.8249 9.51918 17.5432 9.40452 17.2499 9.40442C16.9565 9.40432 16.6748 9.5188 16.4646 9.72346C16.2545 9.92812 16.1326 10.2068 16.1249 10.5ZM20.9999 2.25C20.8029 2.25005 20.6078 2.28891 20.4258 2.36435C20.2437 2.4398 20.0784 2.55036 19.9391 2.68971C19.7998 2.82907 19.6893 2.9945 19.614 3.17655C19.5386 3.35861 19.4998 3.55372 19.4999 3.75075C19.4999 3.94778 19.5388 4.14287 19.6142 4.32489C19.6897 4.50691 19.8003 4.67228 19.9396 4.81157C20.079 4.95085 20.2444 5.06133 20.4264 5.13668C20.6085 5.21204 20.8036 5.2508 21.0006 5.25075C21.3986 5.25065 21.7802 5.09248 22.0615 4.81104C22.3428 4.52959 22.5007 4.14792 22.5006 3.75C22.5005 3.35208 22.3424 2.97049 22.0609 2.68918C21.7795 2.40788 21.3978 2.2499 20.9999 2.25Z" />
</svg>