<svg viewBox="0 0 12 12" xmlns="http://www.w3.org/2000/svg">
  <path
    d="M5.98256 0.646484C3.03721 0.646484 0.627563 3.05611 0.627563 6.00149C0.627563 8.94609 3.03721 11.3557 5.98256 11.3557C8.92792 11.3557 11.3376 8.94609 11.3376 6.00149C11.3376 3.05611 8.92793 0.646484 5.98256 0.646484ZM1.69903 6.00147C1.69903 3.64478 3.62697 1.71712 5.98256 1.71712C6.94654 1.71712 7.85647 2.03834 8.60708 2.62782L2.60886 8.62487C2.02061 7.87537 1.69903 6.9651 1.69903 6.00147ZM5.98256 10.285C5.01848 10.285 4.10868 9.9638 3.35875 9.37473L9.35615 3.37733C9.94523 4.12683 10.2661 5.03752 10.2661 6.00149C10.2661 8.35741 8.33886 10.285 5.98256 10.285Z"
    fill="currentColor"
  >
  </path>
</svg>
