<svg xmlns="http://www.w3.org/2000/svg" viewBox="0 0 14 14" fill="currentColor">
  <g clip-path="url(#clip0_3144_18225)">
    <path d="M6.16918 2.23061H2.99823C2.91921 2.23061 2.84343 2.262 2.78755 2.31788C2.73167 2.37375 2.70028 2.44954 2.70028 2.52856V3.23992C2.70028 3.31894 2.73167 3.39473 2.78755 3.4506C2.84343 3.50648 2.91921 3.53787 2.99823 3.53787H6.16918C6.2482 3.53787 6.32399 3.50648 6.37986 3.4506C6.43574 3.39473 6.46713 3.31894 6.46713 3.23992V2.52856C6.46713 2.44954 6.43574 2.37375 6.37986 2.31788C6.32399 2.262 6.2482 2.23061 6.16918 2.23061ZM8.78073 0.854967C8.78073 0.65534 9.02221 0.557016 9.1624 0.697053L11.9761 3.49884C12.1178 3.63903 12.018 3.87888 11.818 3.87888H9.22721C9.10893 3.87888 8.99548 3.832 8.91171 3.7485C8.82793 3.66501 8.78067 3.55171 8.78028 3.43344L8.78073 0.854967ZM8.97886 7.03135H8.26676C8.20807 7.03135 8.14995 7.04291 8.09573 7.06537C8.0415 7.08783 7.99224 7.12075 7.95073 7.16225C7.90923 7.20376 7.87631 7.25302 7.85385 7.30725C7.83139 7.36147 7.81983 7.41959 7.81983 7.47828V9.75761L6.44359 8.63567C6.42175 8.61786 6.39531 8.60661 6.36733 8.60323C6.33936 8.59984 6.31099 8.60446 6.28554 8.61655C6.26008 8.62864 6.23857 8.6477 6.22352 8.67152C6.20846 8.69534 6.20046 8.72295 6.20047 8.75113V9.75999C6.20048 9.84899 6.22042 9.93685 6.25883 10.0171C6.29724 10.0974 6.35315 10.1681 6.42244 10.2239L8.46341 11.865C8.51682 11.908 8.58341 11.9312 8.65196 11.9308C8.72051 11.9304 8.78682 11.9064 8.83972 11.8628L10.8275 10.2239C10.8953 10.168 10.9499 10.0978 10.9874 10.0183C11.0249 9.93884 11.0444 9.85205 11.0444 9.76416V8.75113C11.0444 8.72295 11.0364 8.69534 11.0214 8.67152C11.0063 8.6477 10.9848 8.62864 10.9593 8.61655C10.9339 8.60446 10.9055 8.59984 10.8775 8.60323C10.8496 8.60661 10.8231 8.61786 10.8013 8.63567L9.42505 9.75761V7.47828C9.42505 7.41959 9.41349 7.36147 9.39103 7.30725C9.36857 7.25302 9.33564 7.20376 9.29414 7.16225C9.25264 7.12075 9.20337 7.08783 9.14915 7.06537C9.09493 7.04291 9.03681 7.03135 8.97812 7.03135H8.97886ZM7.22289 0.333254C7.28148 0.333078 7.33953 0.344458 7.39371 0.366744C7.4479 0.38903 7.49716 0.421784 7.53867 0.463131C7.58018 0.504477 7.61314 0.553605 7.63564 0.607702C7.65814 0.661799 7.66975 0.719803 7.66981 0.778394V3.66703C7.66981 4.40372 8.26929 5.00052 9.00866 5.00052H11.9092C11.9678 5.00032 12.0258 5.01168 12.08 5.03395C12.1342 5.05622 12.1835 5.08896 12.225 5.1303C12.2665 5.17163 12.2995 5.22075 12.322 5.27484C12.3445 5.32893 12.3561 5.38692 12.3561 5.44551V12.7782C12.3556 13.0144 12.2612 13.2406 12.0938 13.4072C11.9265 13.5738 11.6998 13.6671 11.4636 13.6666H2.53671C2.30054 13.6671 2.07382 13.5739 1.90641 13.4073C1.73901 13.2407 1.64463 13.0144 1.64404 12.7782V1.22175C1.64463 0.985562 1.73901 0.759282 1.9064 0.592666C2.0738 0.42605 2.30052 0.33274 2.53671 0.333254H7.22289Z"/>
  </g>
  <defs>
    <clipPath id="clip0_3144_18225">
      <rect width="13.3333" height="13.3333" transform="translate(0.333496 0.333252)"/>
    </clipPath>
  </defs>
</svg>
