<svg xmlns="http://www.w3.org/2000/svg" viewBox="0 0 24 26">
  <path
    fill-rule="evenodd"
    clip-rule="evenodd"
    d="M19.9584 0.1183L19.7669 0.113281H3.76915L3.57766 0.1183C1.73852 0.214933 0.25839 1.69507 0.161757 3.5342L0.156738 3.72569V21.6489L0.161757 21.8404C0.25839 23.6795 1.73852 25.1596 3.57766 25.2563L3.76915 25.2613H10.1482L10.2606 25.2552C10.7778 25.1989 11.1808 24.7591 11.1808 24.2257C11.1808 23.6931 10.7784 23.2551 10.2607 23.1991L10.1482 23.1931H3.76915L3.62861 23.1867C2.88784 23.1196 2.29557 22.5273 2.22845 21.7866L2.22211 21.646V3.72569L2.22845 3.58515C2.29557 2.84438 2.88784 2.25211 3.62861 2.18499L3.76915 2.17866H19.7669L19.9076 2.18498C20.649 2.25192 21.2405 2.84272 21.3076 3.58486L21.3139 3.72569V13.3128L21.32 13.4254C21.376 13.9431 21.8139 14.3455 22.3466 14.3455C22.8793 14.3455 23.3172 13.9431 23.3732 13.4254L23.3793 13.3128V3.72569L23.3743 3.5342C23.2776 1.69507 21.7975 0.214933 19.9584 0.1183ZM22.982 17.2052C22.6117 16.9161 22.0872 16.9161 21.7165 17.2056L21.6195 17.2918L16.1426 22.7686L13.3976 20.0236L13.3001 19.9374C12.8941 19.6215 12.3088 19.6502 11.9376 20.0236C11.5643 20.3969 11.5356 20.9824 11.8515 21.3866L11.9377 21.4837L15.4098 24.9586L15.513 25.049C15.6935 25.1871 15.914 25.2613 16.1398 25.2613C16.367 25.2613 16.586 25.1876 16.7664 25.0493L16.8698 24.9586L23.0795 18.7518L23.1656 18.6543C23.4552 18.2821 23.4552 17.7593 23.166 17.3892L23.079 17.2913L22.982 17.2052ZM10.9287 12.4064L11.0413 12.4125C11.5589 12.4685 11.9614 12.9064 11.9614 13.4391C11.9614 13.9701 11.558 14.4095 11.0411 14.4657L10.9287 14.4718H7.29869L7.18611 14.4657C6.66844 14.4097 6.266 13.9718 6.266 13.4391C6.266 12.9064 6.66844 12.4685 7.18611 12.4125L7.29869 12.4064H10.9287ZM15.5292 7.13825L15.4166 7.13219H7.29869L7.18611 7.13825C6.66844 7.19427 6.266 7.63222 6.266 8.16488C6.266 8.69754 6.66844 9.13549 7.18611 9.19151L7.29869 9.19757H15.4166L15.5292 9.19151C16.0469 9.13549 16.4493 8.69754 16.4493 8.16488C16.4493 7.63222 16.0469 7.19427 15.5292 7.13825Z"
    fill="currentColor"
  ></path>
</svg>
