<svg xmlns="http://www.w3.org/2000/svg" viewBox="0 0 30 30" fill="currentColor">
  <path fill-rule="evenodd" clip-rule="evenodd"
    d="M22.9585 2.1183L22.767 2.11328H6.76927L6.57778 2.1183C4.73865 2.21493 3.25851 3.69507 3.16188 5.5342L3.15686 5.72569V23.6489L3.16188 23.8404C3.25851 25.6795 4.73865 27.1596 6.57778 27.2563L6.76927 27.2613H13.1483L13.2607 27.2552C13.7779 27.1989 14.181 26.7591 14.181 26.2257C14.181 25.6931 13.7785 25.2551 13.2609 25.1991L13.1483 25.1931H6.76927L6.62873 25.1867C5.88796 25.1196 5.29569 24.5273 5.22857 23.7866L5.22224 23.646V5.72569L5.22857 5.58515C5.29569 4.84438 5.88796 4.25211 6.62873 4.18499L6.76927 4.17866H22.767L22.9077 4.18498C23.6491 4.25192 24.2407 4.84272 24.3077 5.58486L24.314 5.72569V15.3128L24.3201 15.4254C24.3761 15.9431 24.8141 16.3455 25.3467 16.3455C25.8794 16.3455 26.3173 15.9431 26.3734 15.4254L26.3794 15.3128V5.72569L26.3744 5.5342C26.2778 3.69507 24.7976 2.21493 22.9585 2.1183ZM25.9821 19.2052C25.6118 18.9161 25.0874 18.9161 24.7166 19.2056L24.6196 19.2918L19.1428 24.7686L16.3977 22.0236L16.3002 21.9374C15.8942 21.6215 15.3089 21.6502 14.9377 22.0236C14.5644 22.3969 14.5357 22.9824 14.8516 23.3866L14.9378 23.4837L18.4099 26.9586L18.5131 27.049C18.6937 27.1871 18.9141 27.2613 19.1399 27.2613C19.3671 27.2613 19.5861 27.1876 19.7665 27.0493L19.8699 26.9586L26.0796 20.7518L26.1657 20.6543C26.4553 20.2821 26.4554 19.7593 26.1661 19.3892L26.0791 19.2913L25.9821 19.2052ZM13.9288 14.4064L14.0414 14.4125C14.559 14.4685 14.9615 14.9064 14.9615 15.4391C14.9615 15.9701 14.5581 16.4095 14.0412 16.4657L13.9288 16.4718H10.2988L10.1862 16.4657C9.66856 16.4097 9.26613 15.9718 9.26613 15.4391C9.26613 14.9064 9.66856 14.4685 10.1862 14.4125L10.2988 14.4064H13.9288ZM18.5294 9.13825L18.4168 9.13219H10.2988L10.1862 9.13825C9.66856 9.19427 9.26613 9.63222 9.26613 10.1649C9.26613 10.6975 9.66856 11.1355 10.1862 11.1915L10.2988 11.1976H18.4168L18.5294 11.1915C19.047 11.1355 19.4495 10.6975 19.4495 10.1649C19.4495 9.63222 19.047 9.19427 18.5294 9.13825Z" />
</svg>