<svg xmlns="http://www.w3.org/2000/svg" viewBox="0 0 18 18" fill="currentColor">
	<path
		d="M8.8125 13.8029L4.69132 9.68176L2.81462 7.80506L2.63787 7.62831C2.22332 7.17625 1.99242 6.58575 1.99038 5.97239C1.99038 4.60363 3.10301 3.49162 4.47115 3.49162C5.10685 3.49162 5.68115 3.73784 6.12086 4.1329L6.31002 4.32206L8.18114 6.19256L8.8125 6.82516L9.44385 6.19256L11.315 4.32206L11.5041 4.1329C11.9554 3.72184 12.5434 3.49327 13.1538 3.49162C14.522 3.49162 15.6346 4.60425 15.6346 5.97239C15.6327 6.58596 15.4018 7.17671 14.9871 7.62893L14.8104 7.80568L12.9337 9.68238L8.8125 13.8029ZM13.1538 2.25124C12.2316 2.25124 11.3913 2.59235 10.7413 3.14804L10.7382 3.14494L10.6966 3.18711L10.3239 3.55985L8.8125 5.07063L7.30109 3.55985L6.92835 3.18773L6.8868 3.14494L6.8837 3.14804C6.21273 2.57007 5.35673 2.25188 4.47115 2.25124C3.48424 2.25124 2.53775 2.64329 1.8399 3.34114C1.14205 4.03899 0.75 4.98548 0.75 5.97239C0.75 7.0999 1.2536 8.10772 2.04558 8.79055L8.8125 15.5568L15.5794 8.79055C15.986 8.44192 16.3124 8.00942 16.536 7.52275C16.7596 7.03607 16.8753 6.50675 16.875 5.97115C16.875 4.98424 16.4829 4.03775 15.7851 3.3399C15.0872 2.64205 14.1408 2.25 13.1538 2.25V2.25124Z" />
</svg>