<svg xmlns="http://www.w3.org/2000/svg" viewBox="0 0 18 18" fill="currentColor">
  <path d="M16.5033 16.6697H1.10048C0.955094 16.673 0.810546 16.6468 0.675567 16.5927C0.540589 16.5386 0.417982 16.4576 0.315152 16.3548C0.212322 16.252 0.131404 16.1294 0.0772848 15.9944C0.0231659 15.8594 -0.00303034 15.7149 0.000278597 15.5695V3.10055C-0.00303034 2.95516 0.0231659 2.81061 0.0772848 2.67563C0.131404 2.54066 0.212322 2.41805 0.315152 2.31522C0.417982 2.21239 0.540589 2.13147 0.675567 2.07735C0.810546 2.02323 0.955094 1.99704 1.10048 2.00034H6.52814C6.67282 1.99655 6.81662 2.02408 6.94968 2.08105C7.08273 2.13802 7.2019 2.22308 7.29901 2.33041L8.47256 3.50395C8.57192 3.60841 8.69151 3.69154 8.82404 3.74829C8.95657 3.80503 9.09927 3.8342 9.24343 3.83401H16.5048C16.6501 3.8307 16.7947 3.8569 16.9297 3.91102C17.0646 3.96514 17.1873 4.04606 17.2901 4.14889C17.3929 4.25172 17.4738 4.37432 17.528 4.5093C17.5821 4.64428 17.6083 4.78883 17.605 4.93421V15.5695C17.6083 15.715 17.582 15.8597 17.5278 15.9947C17.4736 16.1298 17.3926 16.2525 17.2896 16.3554C17.1866 16.4582 17.0638 16.5391 16.9287 16.5931C16.7935 16.6472 16.6488 16.6732 16.5033 16.6697ZM5.99857 9.34015C5.85822 9.34002 5.72079 9.38016 5.60257 9.45581C5.48435 9.53145 5.39032 9.63943 5.33163 9.76692C5.27294 9.89441 5.25207 10.0361 5.27148 10.1751C5.29089 10.3141 5.34977 10.4446 5.44114 10.5511L8.25105 13.829C8.31991 13.9094 8.40535 13.9739 8.50151 14.0182C8.59767 14.0624 8.70227 14.0853 8.80812 14.0853C8.91397 14.0853 9.01857 14.0624 9.11473 14.0182C9.21089 13.9739 9.29633 13.9094 9.36519 13.829L12.1744 10.5511C12.2657 10.4446 12.3246 10.3141 12.344 10.1751C12.3634 10.0361 12.3426 9.89441 12.2839 9.76692C12.2252 9.63943 12.1312 9.53145 12.0129 9.45581C11.8947 9.38016 11.7573 9.34002 11.6169 9.34015H10.2754V7.13975C10.2754 6.94522 10.1981 6.75866 10.0606 6.62111C9.92304 6.48356 9.73648 6.40628 9.54195 6.40628H8.07502C7.88049 6.40628 7.69393 6.48356 7.55638 6.62111C7.41883 6.75866 7.34155 6.94522 7.34155 7.13975V9.34015H5.99857Z"/>
</svg>
