<svg xmlns="http://www.w3.org/2000/svg" viewBox="0 0 30 30" fill="currentColor">
  <path fill-rule="evenodd" clip-rule="evenodd"
    d="M24.0643 2.96219L24 2.92578H6L2.33569 8.96219L1.5 8.92578L1.425 9.00078V14.2508L1.5 14.3258H10.5L10.575 14.2508V12.7508L10.5 12.6758L3.075 12.6748V10.5758H26.925V24.0008L26.9185 24.138C26.8494 24.8606 26.2407 25.4258 25.5 25.4258H4.5L4.35916 25.4188C4.03294 25.3864 3.72621 25.2422 3.49237 25.0084L3.39771 24.9039L3.31442 24.7914C3.15945 24.559 3.075 24.2842 3.075 24.0008V21.8258H6L6.075 21.7508V20.2508L6 20.1758H1.5L1.425 20.2508V24.0008L1.43171 24.2039C1.48075 24.9453 1.79703 25.6465 2.32565 26.1751C2.90232 26.7518 3.68446 27.0758 4.5 27.0758H25.5L25.6807 27.0706C27.2949 26.977 28.575 25.6384 28.575 24.0008V9.00078L28.5 8.92578H27.6L24.0643 2.96219ZM24.5458 17.1977L20.303 12.955H20.197L19.1365 14.0155L19.1365 14.1216L21.438 16.4248L15 16.4258L14.925 16.5008V18.0008L15 18.0758H21.438L19.1365 20.38L19.1365 20.4861L20.197 21.5466H20.303L24.5458 17.3038V17.1977ZM9 16.4258L9.075 16.5008V18.0008L9 18.0758H1.5L1.425 18.0008V16.5008L1.5 16.4258H9ZM3.889 8.92578L6.8124 4.54238L23.21 4.57578L26.11 8.92578H3.889Z" />
</svg>