<svg xmlns="http://www.w3.org/2000/svg" viewBox="0 0 28 26">
  <path
    fill-rule="evenodd"
    clip-rule="evenodd"
    d="M23.0644 0.962194L23 0.925781H5.00005L1.33574 6.96219L0.500049 6.92578L0.425049 7.00078V12.2508L0.500049 12.3258H9.50005L9.57505 12.2508V10.7508L9.50005 10.6758L2.07505 10.6748V8.57578H25.925V22.0008L25.9185 22.138C25.8495 22.8606 25.2408 23.4258 24.5 23.4258H3.50005L3.35921 23.4188C3.03299 23.3864 2.72626 23.2422 2.49242 23.0084L2.39776 22.9039L2.31447 22.7914C2.1595 22.559 2.07505 22.2842 2.07505 22.0008V19.8258H5.00005L5.07505 19.7508V18.2508L5.00005 18.1758H0.500049L0.425049 18.2508V22.0008L0.431757 22.2039C0.480799 22.9453 0.797077 23.6465 1.3257 24.1751C1.90237 24.7518 2.68451 25.0758 3.50005 25.0758H24.5L24.6807 25.0706C26.2949 24.977 27.575 23.6384 27.575 22.0008V7.00078L27.5 6.92578H26.6L23.0644 0.962194ZM23.5458 15.1977L19.3031 10.955H19.197L18.1365 12.0155L18.1365 12.1216L20.438 14.4248L14 14.4258L13.925 14.5008V16.0008L14 16.0758H20.438L18.1365 18.38L18.1365 18.4861L19.197 19.5466H19.3031L23.5458 15.3038V15.1977ZM8.00005 14.4258L8.07505 14.5008V16.0008L8.00005 16.0758H0.500049L0.425049 16.0008V14.5008L0.500049 14.4258H8.00005ZM2.88905 6.92578L5.81245 2.54238L22.21 2.57578L25.1101 6.92578H2.88905Z"
    fill="currentColor"
  />
</svg>
