<svg xmlns="http://www.w3.org/2000/svg" viewBox="0 0 20 20" fill="currentColor">
	<path
		d="M13.0958 4.09893C12.8527 3.85586 12.455 3.85586 12.2119 4.09893L9.99988 6.31094L7.78787 4.09893C7.5448 3.85586 7.14705 3.85586 6.90398 4.09893C6.66091 4.34199 6.66091 4.73975 6.90398 4.98281L8.49099 6.56982H7.49988C7.15613 6.56982 6.87488 6.85107 6.87488 7.19482C6.87488 7.53857 7.15613 7.81982 7.49988 7.81982H9.37488V8.44482H7.49988C7.15613 8.44482 6.87488 8.72607 6.87488 9.06982C6.87488 9.41357 7.15613 9.69482 7.49988 9.69482H9.37488V11.5698C9.37488 11.9136 9.65613 12.1948 9.99988 12.1948C10.3436 12.1948 10.6249 11.9136 10.6249 11.5698V9.69482H12.4999C12.8436 9.69482 13.1249 9.41357 13.1249 9.06982C13.1249 8.72607 12.8436 8.44482 12.4999 8.44482H10.6249V7.81982H12.4999C12.8436 7.81982 13.1249 7.53857 13.1249 7.19482C13.1249 6.85107 12.8436 6.56982 12.4999 6.56982H11.5088L13.0958 4.98281C13.3388 4.73975 13.3388 4.34199 13.0958 4.09893Z" />
	<path
		d="M16.1904 0.833374H3.39278H0.833252V14.9108H3.39278H4.67254V18.1103C4.67254 18.1209 4.67284 18.1315 4.67336 18.1422C4.67348 18.1448 4.67376 18.1473 4.67392 18.1499C4.67442 18.1581 4.67498 18.1662 4.6758 18.1744C4.67598 18.1762 4.67626 18.1781 4.67646 18.1799C4.67744 18.189 4.67858 18.1982 4.67996 18.2072C4.69975 18.3377 4.75952 18.4633 4.85942 18.5632C4.95932 18.6631 5.0847 18.7228 5.21514 18.7426C5.22422 18.744 5.23355 18.7452 5.24267 18.7462C5.24453 18.7464 5.24635 18.7466 5.24821 18.7468C5.25637 18.7476 5.26453 18.7482 5.27271 18.7487C5.27531 18.7489 5.27787 18.7491 5.28046 18.7493C5.29108 18.7498 5.30172 18.7501 5.31234 18.7501C5.32302 18.7501 5.33381 18.7498 5.34447 18.7493C5.34699 18.7491 5.34947 18.7489 5.35199 18.7487C5.36025 18.7482 5.36849 18.7476 5.37673 18.7468C5.37851 18.7466 5.38025 18.7464 5.38203 18.7462C5.52234 18.731 5.65851 18.6702 5.76547 18.5632L9.41785 14.9108H16.1904H18.7499V0.833374H16.1904ZM17.4702 13.631H16.1904H9.15174C8.98752 13.631 8.82327 13.6933 8.69867 13.8179L5.9523 16.5642V14.2709C5.9523 13.9189 5.66435 13.631 5.31242 13.631H3.39278H2.11301V2.11314H3.39278H16.1904H17.4702V13.631Z" />
</svg>