<svg xmlns="http://www.w3.org/2000/svg" viewBox="0 0 35 36">
  <path
    fill-rule="evenodd"
    clip-rule="evenodd"
    d="M2.55191 3.34889C1.02459 4.0948 0.278687 4.91174 0.278687 5.79971V8.25053C0.278687 9.13851 1.02459 9.95545 2.55191 10.7014C4.07923 11.4473 6.13934 12.0511 8.76776 12.4773C11.3962 12.9035 14.2377 13.1167 17.3279 13.1167C20.418 13.1167 23.2596 12.9035 25.888 12.4773C28.5164 12.0511 30.5765 11.4473 32.1038 10.7014C33.6311 9.95545 34.377 9.13851 34.377 8.25053V5.79971C34.377 4.91174 33.6311 4.0948 32.1038 3.34889C30.5765 2.60299 28.5164 1.99917 25.888 1.57294C23.2596 1.14671 20.418 0.933594 17.3279 0.933594C14.2377 0.933594 11.3962 1.14671 8.76776 1.57294C6.17486 2.03469 4.07923 2.60299 2.55191 3.34889ZM0.278687 19.7587V22.8489C0.278687 23.7369 1.02459 24.5538 2.55191 25.2997C4.07923 26.0456 6.13934 26.6494 8.76776 27.0757C11.3962 27.5019 14.2377 27.715 17.3279 27.715C20.418 27.715 23.2596 27.5019 25.888 27.0757C28.5164 26.6494 30.5765 26.0456 32.1038 25.2997C33.6311 24.5538 34.377 23.7369 34.377 22.8489V19.6167C32.6011 20.6822 30.2213 21.4992 27.1667 22.032C24.112 22.6003 20.8443 22.8489 17.3279 22.8489C13.8115 22.8489 10.5437 22.6003 7.48907 22.032C4.43442 21.4992 2.05464 20.6822 0.278687 19.6167M0.278687 26.8626V30.1658C0.278687 31.0538 1.02459 31.8708 2.55191 32.6167C4.07923 33.3626 6.13934 33.9664 8.76776 34.3926C11.3962 34.8188 14.2377 35.032 17.3279 35.032C20.418 35.032 23.2596 34.8188 25.888 34.3926C28.5164 33.9664 30.5765 33.3626 32.1038 32.6167C33.6311 31.8708 34.377 31.0538 34.377 30.1658V26.9336C32.6011 27.9992 30.2213 28.8161 27.1667 29.3489C24.112 29.8817 20.8443 30.1658 17.3279 30.1658C13.8115 30.1658 10.5437 29.8817 7.48907 29.3489C4.43442 28.8161 2.05464 27.9992 0.278687 26.9336M0.278687 12.2997V15.532C0.278687 16.4199 1.02459 17.2369 2.55191 17.9828C4.07923 18.7287 6.13934 19.3325 8.76776 19.7587C11.3962 20.185 14.2377 20.3981 17.3279 20.3981C20.418 20.3981 23.2596 20.185 25.888 19.7587C28.5164 19.3325 30.5765 18.7287 32.1038 17.9828C33.6311 17.2369 34.377 16.4199 34.377 15.532V12.2997C32.6011 13.3653 30.2213 14.1822 27.1667 14.715C24.112 15.2478 20.8443 15.532 17.3279 15.532C13.8115 15.532 10.5437 15.2478 7.48907 14.715C4.43442 14.1822 2.05464 13.3653 0.278687 12.2997Z"
    fill="currentColor"
  />
</svg>
