<svg xmlns="http://www.w3.org/2000/svg" viewBox="0 0 20 19" fill="currentColor">
  <path d="M7.87673 18.8774H2.92288C1.75236 18.8774 0.799805 17.9249 0.799805 16.7543V2.92288C0.799805 1.75236 1.75236 0.799805 2.92288 0.799805H7.87673C9.04725 0.799805 9.9998 1.75236 9.9998 2.92288V16.7543C9.9998 17.9249 9.96725 18.8774 7.87673 18.8774ZM2.92288 2.21519C2.53294 2.21519 2.21519 2.53224 2.21519 2.92288V16.7543C2.21519 17.145 2.53294 17.462 2.92288 17.462H7.87673C8.26667 17.462 8.58442 17.145 8.58442 16.7543V2.92288C8.58442 2.53224 8.26667 2.21519 7.87673 2.21519H2.92288Z"/>
  <path d="M19.0375 3.13536L13.8884 3.13556C13.4971 3.13556 13.1807 2.81851 13.1807 2.42787C13.1807 2.03722 13.4971 1.72017 13.8884 1.72017L19.0375 1.71997C19.4288 1.71997 19.7451 2.03702 19.7451 2.42767C19.7451 2.81831 19.4288 3.13536 19.0375 3.13536Z"/>
  <path d="M19.0375 6.67382L13.8884 6.67402C13.4971 6.67402 13.1807 6.35697 13.1807 5.96633C13.1807 5.57568 13.4971 5.25864 13.8884 5.25864L19.0375 5.25844C19.4288 5.25844 19.7451 5.57548 19.7451 5.96613C19.7451 6.35677 19.4288 6.67382 19.0375 6.67382Z"/>
  <path d="M19.0375 10.2909L13.8884 10.2911C13.4971 10.2911 13.1807 9.97477 13.1807 9.58342C13.1807 9.19207 13.4971 8.87573 13.8884 8.87573L19.0375 8.87553C19.4288 8.87553 19.7451 9.19187 19.7451 9.58322C19.7451 9.97458 19.4288 10.2909 19.0375 10.2909Z"/>
  <path d="M19.0375 14.0338L13.8884 14.034C13.4971 14.034 13.1807 13.717 13.1807 13.3263C13.1807 12.9357 13.4971 12.6186 13.8884 12.6186L19.0375 12.6184C19.4288 12.6184 19.7452 12.9355 19.7452 13.3261C19.7452 13.7168 19.4288 14.0338 19.0375 14.0338Z"/>
  <path d="M19.0375 17.6509L13.8884 17.6511C13.4971 17.6511 13.1807 17.3348 13.1807 16.9434C13.1807 16.5521 13.4971 16.2357 13.8884 16.2357L19.0375 16.2355C19.4288 16.2355 19.7452 16.5519 19.7452 16.9432C19.7452 17.3346 19.4288 17.6509 19.0375 17.6509Z"/>
</svg>
