<svg xmlns="http://www.w3.org/2000/svg" viewBox="0 0 10 14" fill="currentColor">
	<path d="M0.333374 13.4167H9.50004V12.5H0.333374V13.4167Z" />
	<path
		d="M4.91671 1.4987C5.88917 1.4987 6.8218 1.88501 7.50943 2.57264C8.19707 3.26027 8.58337 4.1929 8.58337 5.16536C8.58371 6.0888 8.23386 6.97801 7.60437 7.65366L7.405 7.85303L5.55975 9.69828L4.91671 10.3413L4.27367 9.69828L2.42842 7.85303L2.22904 7.65366C1.59956 6.97801 1.24971 6.0888 1.25004 5.16536C1.25004 4.1929 1.63635 3.26027 2.32398 2.57264C3.01162 1.88501 3.94425 1.4987 4.91671 1.4987ZM1.61121 8.33199L1.75008 8.47086L4.58762 11.3084C4.63006 11.353 4.6811 11.3886 4.73766 11.4129C4.79422 11.4373 4.85513 11.4499 4.91671 11.45C5.04642 11.45 5.16237 11.395 5.24579 11.3084L8.08333 8.47086L8.22221 8.33199C8.44771 8.09686 8.64662 7.83699 8.8185 7.55786C9.26361 6.8392 9.49962 6.01071 9.50004 5.16536C9.50004 2.63811 7.44396 0.582031 4.91671 0.582031C2.38946 0.582031 0.333374 2.63811 0.333374 5.16536C0.333374 6.04261 0.585457 6.86028 1.01492 7.55786C1.18679 7.83699 1.38571 8.09686 1.61121 8.33199Z" />
	<path
		d="M4.91671 4.2487C5.03712 4.24873 5.15634 4.27247 5.26757 4.31858C5.3788 4.36469 5.47986 4.43225 5.56498 4.51741C5.6501 4.60258 5.71762 4.70367 5.76367 4.81492C5.80972 4.92618 5.8334 5.04541 5.83337 5.16582C5.83334 5.28623 5.8096 5.40545 5.76349 5.51669C5.71739 5.62792 5.64982 5.72898 5.56466 5.8141C5.4795 5.89922 5.3784 5.96673 5.26715 6.01278C5.15589 6.05883 5.03666 6.08252 4.91625 6.08249C4.67307 6.08243 4.43988 5.98577 4.26797 5.81378C4.09606 5.64178 3.99952 5.40854 3.99958 5.16536C3.99964 4.92219 4.0963 4.689 4.2683 4.51709C4.44029 4.34518 4.67353 4.24864 4.91671 4.2487ZM4.91671 6.9987C5.92779 6.9987 6.75004 6.17645 6.75004 5.16536C6.75004 4.15428 5.92779 3.33203 4.91671 3.33203C3.90562 3.33203 3.08337 4.15428 3.08337 5.16536C3.08337 6.17645 3.90562 6.9987 4.91671 6.9987Z" />
</svg>