<svg xmlns="http://www.w3.org/2000/svg" viewBox="0 0 12 12">
  <path
    fill="currentColor"
    d="M11.0855 5.60227L9.54012 4.05691C9.39363 3.91043 9.15633 3.91043 9.00984 4.05691C8.86336 4.2034 8.86336 4.4407 9.00984 4.58719L10.0477 5.625H6.375V1.95234L7.41281 2.99016C7.48605 3.0634 7.58203 3.10008 7.67789 3.10008C7.77375 3.10008 7.86984 3.06352 7.94297 2.99016C8.08945 2.84367 8.08945 2.60637 7.94297 2.45988L6.39773 0.914531C6.17871 0.695156 5.82129 0.695156 5.60227 0.914531L4.05691 2.45988C3.91043 2.60637 3.91043 2.84367 4.05691 2.99016C4.2034 3.13664 4.4407 3.13664 4.58719 2.99016L5.625 1.95234V5.625H1.95234L2.99016 4.58719C3.13664 4.4407 3.13664 4.2034 2.99016 4.05691C2.84367 3.91043 2.60637 3.91043 2.45988 4.05691L0.914531 5.60227C0.695156 5.82129 0.695156 6.17871 0.914531 6.39773L2.46 7.9432C2.60648 8.08969 2.84379 8.08969 2.99027 7.9432C3.06352 7.86996 3.1002 7.77398 3.1002 7.67813C3.1002 7.58227 3.06363 7.48617 2.99027 7.41305L1.95234 6.375H5.625V10.0477L4.58719 9.00984C4.4407 8.86336 4.2034 8.86336 4.05691 9.00984C3.91043 9.15633 3.91043 9.39363 4.05691 9.54012L5.60238 11.0856C5.82141 11.305 6.17883 11.305 6.39785 11.0856L7.94332 9.54012C8.0898 9.39363 8.0898 9.15633 7.94332 9.00984C7.87008 8.9366 7.7741 8.89992 7.67824 8.89992C7.58238 8.89992 7.48629 8.93648 7.41316 9.00984L6.375 10.0477V6.375H10.0477L9.00984 7.41281C8.9366 7.48605 8.89992 7.58203 8.89992 7.67789C8.89992 7.77375 8.93648 7.86984 9.00984 7.94297C9.15633 8.08945 9.39363 8.08945 9.54012 7.94297L11.0856 6.3975C11.3048 6.17871 11.3048 5.82129 11.0855 5.60227Z"
  ></path>
</svg>
