<svg xmlns="http://www.w3.org/2000/svg" viewBox="0 0 30 23">
  <path
    fill-rule="evenodd"
    clip-rule="evenodd"
    d="M24.0987 15.4428C22.7047 15.4444 21.4663 16.271 20.9138 17.5129L20.8396 17.6931L20.8211 17.7426V20.0676L20.8091 20.0796L20.8383 20.1607C21.3249 21.4425 22.5242 22.3287 23.9008 22.4066L24.0986 22.4122C25.4909 22.4122 26.7313 21.5843 27.2837 20.3434L27.3551 20.1676L27.314 20.1682L27.2137 20.0682V18.1458L27.3136 18.0458L27.4701 18.0456L27.4665 18.0308C27.0628 16.5174 25.6874 15.4447 24.0987 15.4428ZM7.51139 17.6749C8.02251 16.3484 9.3057 15.4445 10.7638 15.4428L10.9612 15.4485L11.1561 15.4651C12.5751 15.6263 13.762 16.6433 14.132 18.0307L14.1351 18.0456L14.0035 18.0458L13.9036 18.1458V20.0682L14.0039 20.1682L14.0211 20.1676L13.945 20.3524C13.4168 21.5289 12.2685 22.3325 10.9613 22.4066L10.7636 22.4122L10.5662 22.4066C9.12672 22.3253 7.88535 21.3603 7.44505 19.9945L7.4211 19.9166L7.45093 19.8895V17.9676L7.4221 17.9396L7.44653 17.8584L7.51139 17.6749ZM10.7635 17.0317C11.8098 17.0346 12.6567 17.8822 12.6586 18.9284C12.6573 19.9743 11.8097 20.8219 10.7635 20.8232C9.71757 20.8219 8.86998 19.9743 8.86872 18.9282C8.86935 17.8818 9.71702 17.0333 10.7635 17.0317ZM25.9956 18.9313C25.9935 17.8814 25.1454 17.0336 24.0985 17.0317C23.0515 17.0327 22.203 17.8812 22.2021 18.9282C22.2329 19.9567 23.073 20.7719 24.0989 20.7719C25.1247 20.7719 25.9648 19.9567 25.9956 18.9313ZM20.6211 17.7076V7.43861H18.8981L18.8997 18.1458L18.7997 18.2458L14.3831 18.2446L14.4136 18.4146L14.4292 18.5421L14.4405 18.6707L14.4497 18.9309L14.4446 19.1235C14.432 19.363 14.3962 19.5988 14.3377 19.8301L14.2971 19.9676H20.5641L20.5265 19.8369C20.4703 19.6159 20.4346 19.3891 20.4203 19.158L20.4131 18.9256L20.4184 18.7326C20.4312 18.4928 20.4671 18.2568 20.5253 18.0262L20.591 17.7976L20.6211 17.7076ZM3.0591 0.0996094H20.6211L20.6221 5.41675L20.7221 5.51675H24.8848L29.9244 11.4009L29.9001 19.9676H27.6321L27.6723 19.8298C27.7307 19.5988 27.7664 19.363 27.779 19.1235L27.7841 18.9309L27.7749 18.6707C27.7689 18.5846 27.7599 18.4993 27.748 18.4146L27.7171 18.2446L28.0782 18.2458L28.1783 18.1458V12.051L24.0825 7.27372L20.8201 7.23961L20.8221 6.37802L20.7221 6.27792L18.8991 6.27761L18.8997 1.92142L18.7997 1.82142H4.88157L4.78157 1.9214L4.7811 3.76761H3.0581L3.0591 0.0996094ZM7.1821 18.0676H4.4691L4.47015 18.4245C4.45349 18.9264 4.09651 19.339 3.62526 19.4436L3.50519 19.4632L3.39013 19.4693C3.08413 19.4693 2.80708 19.3419 2.61013 19.1366L2.53077 19.044L2.5091 19.0126V19.7886H7.1811L7.14797 19.644C7.11711 19.4879 7.09636 19.3292 7.08597 19.1684L7.07817 18.9256L7.08346 18.7326C7.0926 18.5617 7.11343 18.3927 7.14585 18.2257L7.1821 18.0676ZM3.39013 16.3814C2.95169 16.3814 2.58617 16.7024 2.52014 17.1251L2.51 17.2328L2.5081 17.8676H4.2701L4.27026 17.2328C4.25692 16.8311 3.97607 16.4996 3.60222 16.4071L3.49809 16.388L3.39013 16.3814ZM12.2551 12.7617H1.19779C0.587051 12.7617 0.100098 13.1545 0.100098 13.6283C0.100098 14.0683 0.519971 14.4384 1.06894 14.489L1.19779 14.4949H12.2572C12.8239 14.4949 13.2842 14.1562 13.3471 13.7285L13.3544 13.6283L13.3467 13.5283C13.2934 13.166 12.9556 12.868 12.5086 12.7849L12.3842 12.7676L12.2551 12.7617ZM24.2541 10.7166H22.2861V12.6416H25.7991L24.2541 10.7166ZM10.5044 8.34735H1.02661C0.513402 8.34735 0.100638 8.7361 0.100638 9.21393C0.100638 9.655 0.452342 10.0202 0.910103 10.0737L1.02661 10.0805H10.5066C11.0198 10.0805 11.4326 9.69176 11.4326 9.21393C11.4326 8.77328 11.0794 8.40775 10.6211 8.35413L10.5044 8.34735ZM4.98157 4.27132L4.9801 3.96661L10.5044 3.96807L10.621 3.97516C11.0792 4.02999 11.4326 4.39577 11.4326 4.83464C11.4326 5.31213 11.0196 5.70122 10.5066 5.70122H1.02661L0.910144 5.69445C0.452518 5.64084 0.100638 5.2754 0.100638 4.83464L0.107823 4.72609L0.128809 4.62152C0.230019 4.2464 0.592357 3.96807 1.02661 3.96807L2.8591 3.96661L2.85976 4.2716L2.95976 4.37144H4.88157L4.98157 4.27132Z"
    fill="currentColor"
  ></path>
</svg>
