<svg xmlns="http://www.w3.org/2000/svg" viewBox="0 0 30 30">
  <path
    fill-rule="evenodd"
    clip-rule="evenodd"
    d="M17.0511 26.9489C18.3713 28.2717 20.129 29 22 29C23.871 29 25.6261 28.2691 26.9489 26.9489C28.2717 25.6287 29 23.8684 29 22C29 20.1316 28.2717 18.3739 26.9489 17.0511C25.6287 15.7283 23.871 15 22 15C20.129 15 18.3713 15.7283 17.0511 17.0511C15.7283 18.3713 15 20.129 15 22C15 23.871 15.7283 25.6287 17.0511 26.9489ZM16.6471 22C16.6471 19.0482 19.0482 16.6471 22 16.6471C24.9518 16.6471 27.3529 19.0482 27.3529 22C27.3529 24.9518 24.9518 27.3529 22 27.3529C19.0482 27.3529 16.6471 24.9518 16.6471 22ZM22.75 23V18H21.25V23H22.75ZM22.4305 25.6644C22.294 25.7209 22.1477 25.75 22 25.75C21.7016 25.75 21.4155 25.6315 21.2045 25.4205C20.9935 25.2095 20.875 24.9234 20.875 24.625C20.875 24.3266 20.9935 24.0405 21.2045 23.8295C21.4155 23.6185 21.7016 23.5 22 23.5C22.1477 23.5 22.294 23.5291 22.4305 23.5856C22.567 23.6422 22.691 23.725 22.7955 23.8295C22.9 23.934 22.9828 24.058 23.0394 24.1945C23.0959 24.331 23.125 24.4773 23.125 24.625C23.125 24.7727 23.0959 24.919 23.0394 25.0555C22.9828 25.192 22.9 25.316 22.7955 25.4205C22.691 25.525 22.567 25.6078 22.4305 25.6644Z"
    fill="currentColor"
  />
  <path
    fill-rule="evenodd"
    clip-rule="evenodd"
    d="M21.6101 2L21.8016 2.00502C23.6408 2.10165 25.1209 3.58178 25.2175 5.42092L25.2225 5.61241V11.1996L25.2165 11.3122C25.1605 11.8298 24.7225 12.2323 24.1899 12.2323C23.6572 12.2323 23.2193 11.8298 23.1632 11.3122L23.1572 11.1996V5.61241L23.1508 5.47158C23.0838 4.72944 22.4922 4.13863 21.7508 4.0717L21.6101 4.06538H5.61241L5.47187 4.07171C4.7311 4.13883 4.13883 4.7311 4.07171 5.47187L4.06538 5.61241V23.5327L4.07171 23.6733C4.13883 24.414 4.7311 25.0063 5.47187 25.0734L5.61241 25.0798H11.9914L12.104 25.0858C12.6217 25.1418 13.0241 25.5798 13.0241 26.1125C13.0241 26.6458 12.621 27.0857 12.1039 27.1419L11.9914 27.148H5.61241L5.42092 27.143C3.58178 27.0464 2.10165 25.5662 2.00502 23.7271L2 23.5356V5.61241L2.00502 5.42092C2.10165 3.58178 3.58178 2.10165 5.42092 2.00502L5.61241 2H21.6101ZM12.7719 14.2931L12.8845 14.2992C13.4022 14.3552 13.8046 14.7932 13.8046 15.3258C13.8046 15.8568 13.4012 16.2962 12.8843 16.3524L12.7719 16.3585H9.14195L9.02937 16.3525C8.5117 16.2964 8.10927 15.8585 8.10927 15.3258C8.10927 14.7932 8.5117 14.3552 9.02937 14.2992L9.14195 14.2931H12.7719ZM17.3725 9.02497L17.2599 9.01891H9.14195L9.02937 9.02497C8.5117 9.08099 8.10927 9.51894 8.10927 10.0516C8.10927 10.5843 8.5117 11.0222 9.02937 11.0782L9.14195 11.0843H17.2599L17.3725 11.0782C17.8902 11.0222 18.2926 10.5843 18.2926 10.0516C18.2926 9.51894 17.8902 9.08099 17.3725 9.02497Z"
    fill="currentColor"
  />
</svg>
