<svg xmlns="http://www.w3.org/2000/svg" viewBox="0 0 104 104">
<path d="M43.3987 46.7188H26.3262C25.499 46.7188 24.7056 47.0474 24.1207 47.6323C23.5357 48.2173 23.2071 49.0107 23.2071 49.8379C23.2071 50.6652 23.5357 51.4585 24.1207 52.0435C24.7056 52.6285 25.499 52.9571 26.3262 52.9571H43.3987C44.2259 52.9571 45.0193 52.6285 45.6042 52.0435C46.1892 51.4585 46.5178 50.6652 46.5178 49.8379C46.5178 49.0107 46.1892 48.2173 45.6042 47.6323C45.0193 47.0474 44.2259 46.7188 43.3987 46.7188ZM43.3987 67.3471H26.3262C25.499 67.3471 24.7056 67.6757 24.1206 68.2607C23.5357 68.8456 23.207 69.639 23.207 70.4663C23.207 71.2936 23.5357 72.0869 24.1206 72.6719C24.7056 73.2569 25.499 73.5855 26.3262 73.5855H43.3987C44.2259 73.5855 45.0193 73.2569 45.6043 72.6719C46.1892 72.0869 46.5179 71.2936 46.5179 70.4663C46.5179 69.639 46.1892 68.8456 45.6043 68.2607C45.0193 67.6757 44.2259 67.3471 43.3987 67.3471ZM79.1032 67.3471H67.3126C66.4854 67.3471 65.692 67.6757 65.107 68.2607C64.5221 68.8456 64.1934 69.639 64.1934 70.4663C64.1934 71.2936 64.5221 72.0869 65.107 72.6719C65.692 73.2569 66.4854 73.5855 67.3126 73.5855H79.1032C79.9305 73.5855 80.7239 73.2569 81.3088 72.6719C81.8938 72.0869 82.2224 71.2936 82.2224 70.4663C82.2224 69.639 81.8938 68.8456 81.3088 68.2607C80.7239 67.6757 79.9305 67.3471 79.1032 67.3471Z" fill="currentColor"/>
<path d="M93.0563 90.4699V51.9997C93.0567 51.4723 92.9234 50.9534 92.6689 50.4916C92.4143 50.0297 92.0468 49.6399 91.6007 49.3587L56.9152 27.3995V10.4101C56.9135 9.86546 56.7692 9.33073 56.4967 8.85915C56.2241 8.38757 55.8329 7.99558 55.3618 7.72218C54.8907 7.44879 54.3562 7.30351 53.8116 7.30082C53.2669 7.29813 52.731 7.43811 52.2572 7.70683L11.9777 30.5811C11.4994 30.8524 11.1013 31.2453 10.8237 31.72C10.5462 32.1948 10.3991 32.7345 10.3974 33.2844V90.4699H0V96.7083H103.974V90.4699H93.0563ZM16.6358 90.4699V35.0936L50.6975 15.7545V90.4491L16.6358 90.4699ZM56.9359 90.4699V34.844L86.8388 53.7672V90.5114L56.9359 90.4699Z" fill="currentColor"/>
</svg>
