<svg xmlns="http://www.w3.org/2000/svg" viewBox="0 0 30 30" fill="currentColor">
	<path fill-rule="evenodd" clip-rule="evenodd"
		d="M22 29C20.129 29 18.3713 28.2717 17.0511 26.9489C15.7283 25.6287 15 23.871 15 22C15 20.129 15.7283 18.3713 17.0511 17.0511C18.3713 15.7283 20.129 15 22 15C23.871 15 25.6287 15.7283 26.9489 17.0511C28.2717 18.3739 29 20.1316 29 22C29 23.8684 28.2717 25.6287 26.9489 26.9489C25.6261 28.2691 23.871 29 22 29ZM22 16.6471C19.0482 16.6471 16.6471 19.0482 16.6471 22C16.6471 24.9518 19.0482 27.3529 22 27.3529C24.9518 27.3529 27.3529 24.9518 27.3529 22C27.3529 19.0482 24.9518 16.6471 22 16.6471ZM21.5882 24.0588H24.8824C25.3379 24.0588 25.7059 23.6908 25.7059 23.2353C25.7059 22.7798 25.3379 22.4118 24.8824 22.4118H22.4118V19.1176C22.4118 18.6621 22.0437 18.2941 21.5882 18.2941C21.1327 18.2941 20.7647 18.6621 20.7647 19.1176V23.2353C20.7647 23.6908 21.1327 24.0588 21.5882 24.0588Z" />
	<path
		d="M22.1101 2L22.3016 2.00502C24.1408 2.10165 25.6209 3.58178 25.7175 5.42092L25.7225 5.61241V11.1996L25.7165 11.3122C25.6605 11.8298 25.2225 12.2323 24.6899 12.2323C24.1572 12.2323 23.7193 11.8298 23.6632 11.3122L23.6572 11.1996V5.61241L23.6508 5.47158C23.5838 4.72944 22.9922 4.13863 22.2508 4.0717L22.1101 4.06538H6.11241L5.97187 4.07171C5.2311 4.13883 4.63883 4.7311 4.57171 5.47187L4.56538 5.61241V23.5327L4.57171 23.6733C4.63883 24.414 5.2311 25.0063 5.97187 25.0734L6.11241 25.0798H12.4914L12.604 25.0858C13.1217 25.1418 13.5241 25.5798 13.5241 26.1125C13.5241 26.6458 13.121 27.0857 12.6039 27.1419L12.4914 27.148H6.11241L5.92092 27.143C4.08178 27.0464 2.60165 25.5662 2.50502 23.7271L2.5 23.5356V5.61241L2.50502 5.42092C2.60165 3.58178 4.08178 2.10165 5.92092 2.00502L6.11241 2H22.1101Z" />
	<path
		d="M17.1227 13.075V12.0982H14.1687L16.9211 8.11278L16.108 7.57812L13.0716 11.9767L10.0274 7.58258L9.20651 8.10164L11.9633 12.0982H9.0127V13.0683H12.577V14.073H9.0127V15.0633H12.577V17.6697H13.565V15.0499H17.1227V14.0864H13.565V13.0895L17.1227 13.075Z" />
</svg>