<svg xmlns="http://www.w3.org/2000/svg" viewBox="0 0 14 14" fill="currentColor">
	<path
		d="M11.375 9.681V11.3334C6.76502 10.9156 3.08434 7.23494 2.66652 2.625H5.35365L5.72465 4.01013L5.39959 4.09719L4.55565 4.32337C4.62565 4.60906 4.71227 4.88775 4.8164 5.159C5.17192 6.08311 5.71797 6.92204 6.41905 7.62124C7.12012 8.32043 7.96052 8.86422 8.88559 9.21725C9.15727 9.3205 9.43596 9.40712 9.72209 9.47669L9.94827 8.63231L10.0397 8.29106L11.375 8.64937V9.681ZM11.9546 7.90387L11.956 7.8995L10.2659 7.44669L10.2663 7.44494L9.84371 7.33119C9.76043 7.30887 9.6724 7.31171 9.59072 7.33935C9.50905 7.36699 9.43739 7.41819 9.38477 7.4865C9.34874 7.53274 9.32227 7.58568 9.3069 7.64225L9.19402 8.06531H9.19446L9.11265 8.36937C8.33501 8.05995 7.62836 7.59575 7.03558 7.00492C6.4428 6.4141 5.97626 5.70898 5.66427 4.93237L5.95127 4.85494L5.95171 4.85625L6.37434 4.7425C6.48633 4.71246 6.58182 4.63918 6.63982 4.53877C6.69782 4.43836 6.71358 4.31903 6.68365 4.207L6.11752 2.09387L6.10659 2.09694C6.08727 1.99973 6.03504 1.91216 5.9587 1.84896C5.88236 1.78577 5.78656 1.75082 5.68746 1.75H2.19884C1.94596 1.75 1.74952 1.9635 1.76177 2.21637C1.76877 2.35331 1.77796 2.48937 1.78934 2.625C2.21196 7.7175 6.28246 11.788 11.375 12.2106C11.5106 12.222 11.6466 12.2312 11.7836 12.2382C11.8433 12.2417 11.9031 12.233 11.9594 12.2126C12.0157 12.1923 12.0672 12.1606 12.1108 12.1197C12.1545 12.0788 12.1893 12.0294 12.2132 11.9745C12.2371 11.9197 12.2496 11.8605 12.25 11.8007V8.3125C12.2495 8.22216 12.2207 8.13424 12.1678 8.06105C12.1148 7.98786 12.0403 7.93305 11.9546 7.90431V7.90387Z" />
</svg>