<svg xmlns="http://www.w3.org/2000/svg" viewBox="0 0 12 11">
  <path
    fill-rule="evenodd"
    clip-rule="evenodd"
    d="M6.15299 0.00286831L6.06989 0C5.05399 0.000897041 4.06388 0.361762 3.23863 1.03197C2.95372 1.26124 2.92472 1.63329 3.10926 1.86974C3.26399 2.0679 3.57214 2.15679 3.7932 1.96613C4.43752 1.41439 5.23996 1.13514 6.09171 1.14344C6.2144 1.14513 6.33107 1.15189 6.44044 1.16409L6.68549 1.2014L6.8754 1.24277L7.09536 1.30166L7.25138 1.35393L7.2878 1.3703L7.52647 1.46769L7.59192 1.49874L7.84432 1.63352C8.33145 1.91715 8.76784 2.31772 9.11774 2.80746L9.2525 3.0086L9.38466 3.22889C9.76347 3.90115 9.9823 4.67322 10.0184 5.47084L10.0212 5.61516L9.1242 5.61516L9.04958 5.75989L10.2968 8.45061L10.4418 8.45884L12 5.76647L11.9297 5.6135L11.0368 5.61319L11.0333 5.42475C10.9888 4.37483 10.6898 3.35695 10.1667 2.4838L10.1528 2.45004L10.045 2.28324L9.91072 2.08511C9.40707 1.38201 8.77229 0.833201 8.05165 0.47264L7.93089 0.414156L7.72983 0.329358L7.51732 0.246302L7.44908 0.223349L7.29842 0.178127L6.94594 0.0838475L6.62127 0.0355212L6.42284 0.0138135C6.3384 0.00744408 6.24993 0.00400767 6.15299 0.00286831ZM1.70639 2.54663L1.56087 2.53705L0 5.23077L0.0703119 5.38378L0.961457 5.38334L0.965721 5.57345C1.01182 6.62662 1.31302 7.64724 1.83863 8.52247L1.85683 8.5605L1.92521 8.6671L2.20296 9.05823L2.39221 9.29049L2.62153 9.54211C2.90117 9.82981 3.20784 10.0796 3.53982 10.2902L3.74664 10.4135L3.92765 10.5093L4.07108 10.5805L4.35692 10.7006L4.58079 10.7802L4.67679 10.8082L4.97557 10.8878C4.99671 10.8958 5.02665 10.9038 5.05697 10.9093L5.09607 10.917L5.33099 10.9513L5.37783 10.9609L5.42979 10.9692C5.61773 10.9897 5.77516 11 5.92755 11C7.04543 11 8.21117 10.5743 8.91273 9.82558C9.13938 9.58228 9.15442 9.19643 8.99977 9.0036C8.81979 8.77588 8.45592 8.75518 8.15947 8.99455C7.48336 9.543 6.6696 9.83202 5.83751 9.81919L5.73053 9.81541L5.5114 9.79822L5.17576 9.74364L4.90206 9.67302L4.7413 9.62512L4.63605 9.57962C4.56571 9.55381 4.503 9.52906 4.445 9.50398L4.29808 9.43669L4.08666 9.32033L3.9907 9.26382L3.79434 9.13152C3.53583 8.9457 3.2986 8.72841 3.08547 8.48246L2.94618 8.31376L2.83621 8.16639L2.65413 7.89122L2.52952 7.67677C2.17226 7.023 1.96486 6.27802 1.92753 5.50903L1.92376 5.34994L2.81993 5.35003L2.89514 5.2066L1.70639 2.54663Z"
    fill="currentColor"
  ></path>
</svg>
