<svg xmlns="http://www.w3.org/2000/svg" viewBox="0 0 24 24">
  <path
    fill-rule="evenodd"
    clip-rule="evenodd"
    d="M12.0077 0.0195312C5.39071 0.0195312 0.0266113 5.38366 0.0266113 12.0006C0.0266113 18.6176 5.39071 23.9817 12.0077 23.9817C18.6247 23.9817 23.9888 18.6176 23.9888 12.0006C23.9888 5.38369 18.6247 0.0195312 12.0077 0.0195312ZM12.0077 1.17333C13.4699 1.17333 14.8877 1.45944 16.2218 2.02373C17.511 2.56901 18.669 3.34985 19.6638 4.34459C20.6585 5.33932 21.4393 6.49735 21.9846 7.78652C22.5489 9.12061 22.835 10.5385 22.835 12.0006C22.835 13.4628 22.5489 14.8807 21.9846 16.2148C21.4393 17.5039 20.6585 18.662 19.6638 19.6567C18.669 20.6514 17.511 21.4323 16.2218 21.9776C14.8877 22.5419 13.4699 22.828 12.0077 22.828C10.5455 22.828 9.12769 22.5419 7.79357 21.9776C6.5044 21.4323 5.34637 20.6514 4.35164 19.6567C3.3569 18.662 2.57606 17.5039 2.03078 16.2148C1.46649 14.8807 1.18038 13.4628 1.18038 12.0006C1.18038 10.5385 1.46649 9.12061 2.03078 7.78652C2.57606 6.49735 3.3569 5.33932 4.35164 4.34459C5.34637 3.34985 6.5044 2.56901 7.79357 2.02373C9.12766 1.45944 10.5455 1.17333 12.0077 1.17333ZM6.52613 15.6774C7.8511 14.0165 9.84357 13.0638 11.9916 13.0638C14.1629 13.0638 16.1684 14.0331 17.4932 15.7236C17.753 16.0539 17.6891 16.5286 17.3514 16.7835C17.0139 17.0382 16.5307 16.9754 16.2709 16.6443C15.2402 15.3295 13.6804 14.5761 11.9916 14.5761C10.3206 14.5761 8.77065 15.3168 7.74014 16.6087C7.47727 16.9384 6.99246 16.9959 6.65794 16.738C6.32276 16.4811 6.26405 16.0063 6.52613 15.6774ZM8.52316 10.8413C7.88423 10.8413 7.36705 10.334 7.36705 9.70721V8.19529C7.36705 7.56859 7.88423 7.06125 8.52316 7.06125C9.16214 7.06125 9.67931 7.56859 9.67931 8.19529V9.70721C9.67929 10.3333 9.16137 10.8413 8.52316 10.8413ZM14.3038 9.70721C14.3038 10.334 14.8218 10.8413 15.46 10.8413C16.0982 10.8413 16.6161 10.3333 16.6161 9.70721V8.19529C16.6161 7.56859 16.0982 7.06125 15.46 7.06125C14.8218 7.06125 14.3038 7.56859 14.3038 8.19529V9.70721Z"
    fill="currentColor"
  />
</svg>
