<svg width="24" height="24" viewBox="0 0 24 24" fill="currentColor" xmlns="http://www.w3.org/2000/svg">
	<path
		d="M11.0762 3C13.2217 3.00003 15.2793 3.85233 16.7964 5.36942C18.3135 6.88651 19.1658 8.94411 19.1658 11.0896C19.1639 12.8377 18.5937 14.5362 17.5436 15.9302L17.5395 15.9261L17.4448 16.0588L17.5313 16.1236L17.4739 16.181L19.7416 18.4477C20.0277 18.7391 20.0843 19.1793 19.8918 19.5372L19.8244 19.6452L19.7331 19.7531C19.5604 19.9237 19.3274 20.0196 19.0845 20.02C18.8402 20.0204 18.6053 19.9238 18.4318 19.7518L15.5496 16.8696C15.3598 16.6801 15.2523 16.4234 15.2504 16.1551C15.2485 15.8869 15.3522 15.6288 15.5392 15.4365C16.6767 14.2752 17.3155 12.7152 17.3194 11.0897C17.3188 9.77601 16.9037 8.49605 16.1334 7.432C15.363 6.36795 14.2766 5.57406 13.0288 5.16336C11.781 4.75266 10.4354 4.74609 9.18369 5.14459C7.93195 5.54308 6.83783 6.32633 6.05711 7.38281C5.2764 8.43928 4.84889 9.71514 4.83545 11.0287C4.82201 12.3423 5.22332 13.6266 5.98225 14.6988C6.74119 15.7711 7.81905 16.5765 9.06238 17.0006C10.3049 17.4243 11.6495 17.4455 12.9047 17.0612C13.1358 17.0013 13.3811 17.033 13.5893 17.1497C13.7982 17.2669 13.9535 17.4604 14.0226 17.6897C14.0916 17.9191 14.0691 18.1662 13.9596 18.3792C13.8504 18.5917 13.6633 18.7536 13.4375 18.8312C12.326 19.1683 11.1549 19.2621 10.0039 19.1062C8.85221 18.9502 7.74768 18.5479 6.76546 17.9267C5.78325 17.3055 4.94642 16.4799 4.31194 15.5062C3.67746 14.5325 3.26023 13.4335 3.08865 12.284C2.91707 11.1346 2.99517 9.96167 3.31763 8.84512C3.64009 7.72857 4.19934 6.6946 4.95731 5.81361C5.71529 4.93262 6.65418 4.22528 7.71009 3.73976C8.76597 3.25425 9.91405 3.00194 11.0762 3Z" />
</svg>