<svg xmlns="http://www.w3.org/2000/svg" viewBox="0 0 24 24">
<path d="M16.4602 9.55781C15.8672 8.94374 15.1852 8.47031 14.4141 8.13515C13.6125 7.80234 12.7781 7.63359 11.9086 7.63359C11.0391 7.63359 10.2047 7.79999 9.40313 8.13515C8.63203 8.46796 7.95 8.9414 7.35703 9.55078C6.76406 10.1602 6.30469 10.8562 5.98359 11.6391C5.63906 12.4523 5.46797 13.3078 5.46797 14.2031C5.46797 15.1828 5.67187 16.1109 6.07734 16.9875C6.18047 17.2266 6.08672 17.625 5.85938 18.1922C5.5875 18.7898 5.64844 18.9258 5.21484 19.2492L4.69687 19.5937L5.41172 19.8375C5.80781 19.9617 6.18984 19.9711 6.66094 20.025C7.40625 20.1094 7.66641 20.0648 8.42344 19.8469C8.49609 19.8047 8.55234 19.8 8.59453 19.8328H8.61094L8.62734 19.8469C9.62578 20.4609 10.725 20.7703 11.9227 20.7703C12.7875 20.7703 13.6195 20.5992 14.4211 20.2547C15.1922 19.9219 15.8742 19.4508 16.4672 18.8484C17.0602 18.2437 17.5242 17.5453 17.857 16.7531C18.1898 15.9398 18.3563 15.0891 18.3563 14.1961C18.3563 13.3055 18.1898 12.4523 17.857 11.6391C17.5172 10.8562 17.0531 10.1625 16.4602 9.55781ZM9.87891 14.843C9.70781 15.0187 9.49922 15.1078 9.25312 15.1078C9.00937 15.1078 8.80078 15.0187 8.62734 14.843C8.45625 14.6648 8.36953 14.4516 8.36953 14.2008C8.36953 13.95 8.45625 13.7367 8.62734 13.5586C8.79844 13.3828 9.00703 13.2937 9.25312 13.2937C9.49687 13.2937 9.70547 13.3828 9.87891 13.5586C10.05 13.7344 10.1367 13.95 10.1367 14.2008C10.1367 14.4516 10.05 14.6648 9.87891 14.843ZM12.7219 14.843C12.5508 15.0187 12.3422 15.1078 12.0961 15.1078C11.8523 15.1078 11.6438 15.0187 11.4703 14.843C11.2992 14.6648 11.2125 14.4516 11.2125 14.2008C11.2125 13.95 11.2992 13.7367 11.4703 13.5586C11.6414 13.3828 11.85 13.2937 12.0961 13.2937C12.3398 13.2937 12.5484 13.3828 12.7219 13.5586C12.8953 13.7344 12.9797 13.95 12.9797 14.2008C12.9797 14.4516 12.893 14.6648 12.7219 14.843ZM15.5555 14.843C15.3797 15.0187 15.1688 15.1078 14.9227 15.1078C14.6789 15.1078 14.4703 15.0187 14.2969 14.843C14.1258 14.6648 14.0391 14.4516 14.0391 14.2008C14.0391 13.95 14.1258 13.7367 14.2969 13.5586C14.468 13.3828 14.6766 13.2937 14.9227 13.2937C15.1664 13.2937 15.3773 13.3828 15.5555 13.5586C15.7313 13.7344 15.8203 13.95 15.8203 14.2008C15.8203 14.4516 15.7313 14.6648 15.5555 14.843ZM23.243 11.5406C22.9359 11.0297 22.5234 10.6148 22.0102 10.3078C21.2719 8.24296 19.9852 6.53203 18.1805 5.22187C16.3617 3.90234 14.2828 3.23203 12 3.23203C9.71719 3.23203 7.63828 3.90234 5.81953 5.22187C4.01484 6.53203 2.73281 8.24062 2.00859 10.3055C1.49531 10.6008 1.07812 11.0133 0.766406 11.5312C0.445313 12.0633 0.28125 12.6562 0.28125 13.2867C0.28125 14.2617 0.567188 15.0867 1.12969 15.743C1.6875 16.3922 2.42344 16.7273 3.32109 16.7414L3.32812 16.7484L3.38906 16.7437C3.42422 16.7414 3.50391 16.7203 3.51328 16.6055V16.6008V16.5891L3.52031 16.2773C3.525 16.057 3.53203 15.7242 3.53906 15.2812C3.55781 14.3766 3.57187 13.3641 3.58359 12.2766C3.59531 11.2125 3.6 10.4578 3.6 10.0359C4.32656 8.41874 5.45625 7.09921 6.95859 6.11249C8.47031 5.12109 10.1648 4.61953 11.9977 4.61953C13.8305 4.61953 15.525 5.12109 17.0367 6.11249C18.5391 7.09921 19.6688 8.41874 20.3953 10.0359C20.3977 10.4578 20.4562 12.6117 20.5734 16.6102L20.5781 16.7437H20.7117C21.6352 16.7437 22.3758 16.4109 22.9148 15.7523C23.4469 15.1031 23.7164 14.2734 23.7164 13.2891C23.7188 12.6562 23.557 12.068 23.243 11.5406Z" fill="currentColor"/>
</svg>
