<svg xmlns="http://www.w3.org/2000/svg" viewBox="0 0 20 18">
  <path
    d="M18.5714 10.7143C18.5714 11.1079 18.2514 11.4286 17.8571 11.4286H16.4286V7.14286H17.8571C18.2514 7.14286 18.5714 7.46357 18.5714 7.85714V10.7143ZM8.57143 15C8.57143 14.2121 9.21214 13.5714 10 13.5714C10.7879 13.5714 11.4286 14.2121 11.4286 15C11.4286 15.7879 10.7879 16.4286 10 16.4286C9.21214 16.4286 8.57143 15.7879 8.57143 15ZM3.57143 11.4286H2.14286C1.74857 11.4286 1.42857 11.1079 1.42857 10.7143V7.85714C1.42857 7.46357 1.74857 7.14286 2.14286 7.14286H3.57143V11.4286ZM17.8571 5.71429H16.3864C16.0307 2.5 13.3086 0 10 0C6.69143 0 3.96929 2.5 3.61357 5.71429H2.14286C0.961429 5.71429 0 6.67571 0 7.85714V10.7143C0 11.8957 0.961429 12.8571 2.14286 12.8571H5V6.42857C5 3.67143 7.24357 1.42857 10 1.42857C12.7564 1.42857 15 3.67143 15 6.42857V11.4286C14.9998 12.2459 14.7992 13.0508 14.4156 13.7726C14.0321 14.4944 13.4773 15.1111 12.8 15.5686C12.8837 15.1537 12.8743 14.7254 12.7724 14.3145C12.6706 13.9037 12.4788 13.5206 12.2109 13.1929C11.9431 12.8652 11.6058 12.601 11.2235 12.4194C10.8411 12.2378 10.4233 12.1434 10 12.1429C8.42429 12.1429 7.14286 13.4243 7.14286 15C7.14286 16.5757 8.42429 17.8571 10 17.8571C13.0586 17.8571 15.6129 15.7193 16.2643 12.8571H17.8571C19.0386 12.8571 20 11.8957 20 10.7143V7.85714C20 6.67571 19.0386 5.71429 17.8571 5.71429Z"
    fill="currentColor"
  ></path>
</svg>
