<svg xmlns="http://www.w3.org/2000/svg" viewBox="0 0 14 14">
  <path
    d="M9.23513 9.96509C9.41618 9.58287 9.60179 9.19101 10.0462 8.99756C10.7822 8.6948 13.3794 10.3397 13.1625 11.3785C12.9897 12.4178 11.9074 13.4566 10.0462 13.7594C7.62236 14.1056 0.653076 9.73358 0.653076 3.89066C0.740076 1.03358 1.73536 0.341064 2.99048 0.341064C4.2456 0.341064 5.67472 3.93358 4.9387 4.27984C4.8352 4.32754 4.71556 4.36941 4.5895 4.41352C4.03033 4.6092 3.34474 4.84911 3.38024 5.8383C3.42374 6.61724 7.36252 10.9887 8.09854 10.9458C8.79326 10.898 9.01069 10.4389 9.23513 9.96509ZM8.57472 0.773164C9.91626 1.033 11.085 1.72552 11.8645 2.8078C12.6434 3.89008 12.9462 5.1887 12.6863 6.44382C12.6337 6.66604 12.439 6.82562 12.2107 6.83358H12.1237C11.9944 6.83358 11.9087 6.74793 11.8221 6.66132L11.821 6.66016C11.7283 6.5708 11.6947 6.43635 11.7346 6.3139C12.1237 4.19284 10.6523 2.11528 8.4013 1.72552C8.14204 1.6391 7.96862 1.42276 8.01212 1.16292C8.05504 0.903664 8.31488 0.730244 8.57472 0.773164ZM10.0027 5.7948C10.2196 4.71252 9.48358 3.67374 8.40188 3.4574V3.45798C8.14204 3.41448 7.9692 3.15464 7.9692 2.89538C8.0127 2.63554 8.27196 2.46212 8.5318 2.50562C9.31915 2.64692 10.0176 3.09638 10.4725 3.75439C10.9274 4.41241 11.101 5.22465 10.955 6.01114C10.9024 6.23336 10.7077 6.39294 10.4794 6.4009H10.3924C10.2625 6.3574 10.1761 6.27098 10.0897 6.18456C10.0027 6.05464 9.95976 5.92472 10.0027 5.7948ZM7.92512 5.10228C8.27138 5.1887 8.48772 5.49146 8.4448 5.88122C8.4448 6.01114 8.4448 6.09756 8.53122 6.22748C8.61822 6.31448 8.70464 6.4009 8.79106 6.4009H8.87806C9.09382 6.4009 9.26724 6.22748 9.31016 6.05464C9.39716 5.66488 9.31016 5.2322 9.0509 4.88594C8.83456 4.5391 8.4883 4.32334 8.09854 4.23634C7.8822 4.19342 7.62236 4.36626 7.57886 4.5826C7.53515 4.82088 7.68838 5.05086 7.92512 5.10228Z"
    fill="currentColor"
  ></path>
</svg>
