<svg xmlns="http://www.w3.org/2000/svg" viewBox="0 0 24 24" fill="currentColor">
	<path
		d="M12.4446 11.5363C12.334 11.5358 12.2252 11.508 12.1278 11.4555L3.36665 6.73789C3.25626 6.68133 3.16362 6.59541 3.09892 6.48958C3.03423 6.38375 3 6.26212 3 6.13808C3 6.01404 3.03423 5.89241 3.09892 5.78658C3.16362 5.68075 3.25626 5.59483 3.36665 5.53827L12.485 1.09029C12.5875 1.03114 12.7037 1 12.822 1C12.9403 1 13.0565 1.03114 13.159 1.09029L21.5832 6.20549C21.6872 6.26908 21.772 6.3597 21.8286 6.46769C21.8852 6.57568 21.9114 6.697 21.9045 6.81872C21.8976 6.94045 21.8578 7.05802 21.7894 7.1589C21.7209 7.25979 21.6264 7.34022 21.5158 7.39162L12.7546 11.4352C12.6611 11.4938 12.5547 11.5285 12.4446 11.5363ZM5.15259 6.14482L12.4446 10.1143L19.7501 6.74463L12.7479 2.46516L5.15259 6.14482Z" />
	<path
		d="M12.4446 22.9865C12.3207 22.9857 12.1994 22.9507 12.0941 22.8854L3.33298 17.4939C3.2346 17.434 3.15322 17.3499 3.09659 17.2496C3.03995 17.1494 3.00997 17.0362 3.00949 16.9211V6.13808C3.0098 6.02189 3.04014 5.90776 3.09757 5.80676C3.155 5.70575 3.23757 5.62131 3.33726 5.56164C3.43695 5.50196 3.55038 5.46906 3.66653 5.46615C3.78269 5.46324 3.89762 5.49041 4.00017 5.54502L12.7614 10.2626C12.8712 10.322 12.9633 10.4094 13.0284 10.5159C13.0935 10.6225 13.1292 10.7443 13.132 10.8691V22.3261C13.132 22.4146 13.1146 22.5022 13.0807 22.584C13.0469 22.6657 12.9972 22.74 12.9346 22.8026C12.872 22.8652 12.7978 22.9148 12.716 22.9487C12.6342 22.9826 12.5466 23 12.4581 23L12.4446 22.9865ZM4.35734 16.5235L11.7707 21.1063V11.2667L4.35734 7.27705V16.5235Z" />
	<path
		d="M12.4446 22.9865C12.2659 22.9865 12.0944 22.9155 11.9681 22.7891C11.8417 22.6627 11.7707 22.4913 11.7707 22.3126V10.8557C11.769 10.7256 11.8051 10.5979 11.8744 10.4879C11.9438 10.3778 12.0435 10.2902 12.1615 10.2356L20.9227 6.192C21.0261 6.14417 21.1398 6.1233 21.2534 6.13135C21.367 6.13939 21.4767 6.17608 21.5723 6.238C21.6678 6.29991 21.7462 6.38504 21.7999 6.48541C21.8537 6.58579 21.8811 6.69816 21.8797 6.81202V17.595C21.8794 17.7169 21.846 17.8365 21.7831 17.9409C21.7202 18.0454 21.6301 18.1308 21.5225 18.1881L12.7613 22.9056C12.664 22.9582 12.5552 22.986 12.4446 22.9865ZM13.1185 11.3004V21.1804L20.5318 17.1974V7.86337L13.1185 11.3004ZM6.85964 10.1046L9.35587 11.3809C9.74791 11.5813 9.84371 11.8775 9.64326 12.2696C9.44283 12.6616 9.14659 12.7574 8.75454 12.557L6.25833 11.2807C5.86629 11.0803 5.77049 10.784 5.97092 10.392C6.17136 9.99994 6.4676 9.90414 6.85964 10.1046Z" />
</svg>