
<svg viewBox="0 0 16 17" xmlns="http://www.w3.org/2000/svg">
<path d="M12.9016 5.16797L13.7266 4.83672L14.4735 3.83672L13.4782 2.84141L12.4735 3.58828L12.1469 4.41328L9.67038 6.88516L10.4798 7.58828L12.9016 5.16797ZM14.3563 11.907L9.87507 8.00391L9.71413 7.86797L8.43601 6.75547C8.59226 5.99922 8.87038 3.96328 7.73757 2.83203C6.9907 2.08516 6.00007 1.67578 4.95163 1.67578C4.69226 1.67578 4.43445 1.70078 4.18132 1.74922C4.11257 1.76328 4.05476 1.81328 4.03445 1.88047C4.0157 1.94922 4.03444 2.02266 4.08288 2.07109L5.77194 3.76016L6.10945 5.39453L4.7282 6.77578L3.09382 6.43828L1.4032 4.74766C1.35476 4.69922 1.27663 4.67891 1.20788 4.69922C1.13913 4.71797 1.0907 4.77734 1.07663 4.84609C0.817258 6.13984 1.22351 7.47109 2.15476 8.40391C2.71101 8.96016 3.57507 9.25234 4.65788 9.25234C5.11101 9.25234 5.60007 9.19922 6.0782 9.10078L11.2313 15.0102C11.6563 15.4352 12.2079 15.6648 12.7985 15.6648C13.3844 15.6648 13.9407 15.4352 14.3548 15.0211C15.2141 14.1617 15.2141 12.7617 14.3563 11.907ZM13.1844 13.8492C12.9704 14.0633 12.6235 14.0633 12.4079 13.8492C12.1938 13.6352 12.1938 13.2883 12.4079 13.0727C12.6219 12.8586 12.9688 12.8586 13.1844 13.0727C13.4001 13.2883 13.4001 13.6352 13.1844 13.8492ZM5.81101 10.1695C5.61569 9.97422 5.29851 9.97422 5.1032 10.1695L1.81413 13.4648C1.61882 13.6602 1.61882 13.9773 1.81413 14.1727L3.09695 15.4555C3.29226 15.6508 3.60945 15.6508 3.80945 15.4555L7.00632 12.2633C7.20163 12.068 7.20163 11.7508 7.00632 11.5508L5.81101 10.1695Z" fill="currentColor"/>
</svg>
