<svg xmlns="http://www.w3.org/2000/svg" viewBox="0 0 20 20" fill="currentColor">
  <path d="M18.1175 12.0464L1.92841 12.0466C1.53706 12.0466 1.22072 11.7295 1.22072 11.3389C1.22072 10.9482 1.53706 10.6312 1.92841 10.6312L18.1175 10.631C18.5088 10.631 18.8251 10.948 18.8251 11.3387C18.8251 11.7293 18.5088 12.0464 18.1175 12.0464Z"/>
  <path d="M18.1175 15.5848L1.92841 15.585C1.53706 15.585 1.22072 15.268 1.22072 14.8773C1.22072 14.4867 1.53706 14.1696 1.92841 14.1696L18.1175 14.1694C18.5088 14.1694 18.8251 14.4865 18.8251 14.8771C18.8251 15.2678 18.5088 15.5848 18.1175 15.5848Z"/>
  <path d="M18.1175 19.2019L1.92841 19.2021C1.53706 19.2021 1.22072 18.8858 1.22072 18.4944C1.22072 18.1031 1.53706 17.7867 1.92841 17.7867L18.1175 17.7865C18.5088 17.7865 18.8251 18.1029 18.8251 18.4942C18.8251 18.8856 18.5088 19.2019 18.1175 19.2019Z"/>
  <path d="M17.0767 7.83741H2.92288C1.75236 7.83741 0.799805 6.88486 0.799805 5.71433V2.92288C0.799805 1.75236 1.75236 0.799805 2.92288 0.799805H17.0767C18.2472 0.799805 19.1998 1.75236 19.1998 2.92288V5.71433C19.1998 6.88486 18.2472 7.83741 17.0767 7.83741ZM2.92288 2.21519C2.53294 2.21519 2.21519 2.53224 2.21519 2.92288V5.71433C2.21519 6.10498 2.53294 6.42203 2.92288 6.42203H17.0767C17.4667 6.42203 17.7844 6.10498 17.7844 5.71433V2.92288C17.7844 2.53224 17.4667 2.21519 17.0767 2.21519H2.92288Z"/>
</svg>
