<svg xmlns="http://www.w3.org/2000/svg" viewBox="0 0 19 19">
  <path
    d="M8.21364 0C10.7017 0 12.7187 2.01697 12.7187 4.50502C12.7187 5.69983 12.244 6.8457 11.3992 7.69056L11.3056 7.78144L11.2096 7.86948L11.0593 7.99493L11.0936 8.0091C11.9726 8.37692 12.775 8.90756 13.4548 9.57022L13.7039 9.82485L13.941 10.0915C14.2445 10.4012 14.2445 10.8968 13.9403 11.2072C13.7907 11.358 13.5872 11.4428 13.3748 11.4428C13.1625 11.4428 12.9589 11.358 12.7984 11.195C11.6684 9.82387 9.989 9.02375 8.21364 9.01005C4.67842 9.01005 1.72667 12.3932 1.59723 16.5804L1.59399 16.6888H13.1585C13.5183 16.6888 13.8225 16.9275 13.9212 17.2552L13.9462 17.3675L13.9549 17.4852C13.9549 17.885 13.6602 18.2161 13.2762 18.273L13.1585 18.2816H0.793454C0.418226 18.2754 0.102598 18.0133 0.0190261 17.6478L0 17.5223V16.8671C0 13.1073 1.9349 9.76505 4.82941 8.25649L5.10355 8.12047L5.37156 7.99968L5.22685 7.87784C4.40575 7.15121 3.87257 6.14702 3.74066 5.04384L3.7161 4.76609L3.70862 4.50502C3.70862 2.01697 5.72559 0 8.21364 0ZM16.0917 11.2802L16.1896 11.3635L18.586 13.7612C18.7088 13.8549 18.8024 13.9826 18.8531 14.1258C18.8851 14.2114 18.9016 14.3025 18.9016 14.3947C18.9016 14.4867 18.8851 14.5777 18.8541 14.6611C18.8159 14.7687 18.7549 14.8664 18.6833 14.9417L18.6085 15.009L16.1942 17.4211C16.0483 17.5781 15.843 17.6661 15.633 17.6636C15.4188 17.6661 15.2134 17.5781 15.0762 17.4298C14.9208 17.2839 14.8326 17.0802 14.8326 16.8671C14.8326 16.6966 14.889 16.5321 14.9889 16.4007L15.0717 16.3088L16.1812 15.1911H10.6861C10.3262 15.1911 10.0221 14.9524 9.92337 14.6247L9.89829 14.5124L9.88966 14.3947C9.88966 13.9948 10.1843 13.6638 10.5684 13.6069L10.6861 13.5983H16.1812L15.0721 12.481C14.8253 12.2341 14.7759 11.8646 14.924 11.5686L14.9888 11.4615L15.0721 11.3635C15.3499 11.0858 15.7829 11.058 16.0917 11.2802ZM5.30143 4.50502C5.30143 2.89665 6.60527 1.59281 8.21364 1.59281C8.98601 1.59281 9.72675 1.89963 10.2729 2.44577C10.819 2.99192 11.1259 3.73265 11.1259 4.50502C11.1259 6.1134 9.82202 7.41724 8.21364 7.41724C6.60527 7.41724 5.30143 6.1134 5.30143 4.50502Z"
    fill="currentColor"
  ></path>
</svg>
