<svg xmlns="http://www.w3.org/2000/svg" viewBox="72 77 880 880">
  <path
    d="M475.415273 93.090909a209.687273 209.687273 0 0 1 148.247272 357.934546l-4.328727 4.235636-4.468363 4.096-6.981819 5.864727 1.582546 0.651637a352.488727 352.488727 0 0 1 109.847273 72.657454l11.636363 11.869091 11.031273 12.381091a37.096727 37.096727 0 0 1 0 51.944727 37.050182 37.050182 0 0 1-53.201455-0.558545 279.365818 279.365818 0 0 0-213.364363-101.701818c-164.584727 0-301.940364 157.463273-307.991273 352.34909l-0.139636 5.073455h538.251636c16.756364 0 30.906182 11.077818 35.514182 26.344727l1.163636 5.259637 0.418909 5.445818c0 18.618182-13.730909 34.024727-31.604363 36.677818l-5.492364 0.418909H130.001455a37.608727 37.608727 0 0 1-36.026182-29.509818L93.090909 908.660364v-30.487273c0-175.010909 90.065455-330.565818 224.814546-400.756364l12.753454-6.376727 12.474182-5.585455-6.749091-5.678545A209.175273 209.175273 0 0 1 267.170909 327.866182l-1.163636-12.939637-0.325818-12.148363A209.687273 209.687273 0 0 1 475.415273 93.090909z m366.685091 525.032727l4.561454 3.909819 111.522909 111.569454a37.003636 37.003636 0 0 1 4.514909 54.923636l-3.490909 3.165091-112.360727 112.267637a35.281455 35.281455 0 0 1-26.112 11.310545 35.002182 35.002182 0 0 1-25.925818-10.891636 35.933091 35.933091 0 0 1-4.049455-47.941818l3.863273-4.235637 51.665455-52.037818h-255.813819a37.096727 37.096727 0 0 1-35.514181-26.344727l-1.163637-5.259637-0.372363-5.445818c0-18.618182 13.684364-34.024727 31.557818-36.677818l5.492363-0.418909h255.767273l-51.618909-51.991273a36.770909 36.770909 0 0 1-6.888727-42.449454l3.025454-5.026909 3.863273-4.514909a36.770909 36.770909 0 0 1 47.476364-3.909819z m-366.685091-450.885818a135.540364 135.540364 0 1 0 0 271.080727 135.540364 135.540364 0 0 0 0-271.080727z"
    fill="currentColor"
  />
</svg>
