<svg xmlns="http://www.w3.org/2000/svg" viewBox="0 0 18 19" fill="currentColor">
  <path d="M7.34131 6.98121C7.34131 6.71831 7.52721 6.61161 7.75491 6.74251L11.6775 9.00741C11.9052 9.13831 11.9052 9.35391 11.6775 9.48481L7.75491 11.7497C7.52721 11.8806 7.34131 11.7739 7.34131 11.511L7.34131 6.98121Z"/>
  <path d="M14.1132 10.378C14.441 8.6664 14.0835 7.1319 12.9329 5.8207C11.9385 4.6877 10.6625 4.0981 9.15549 4.064C7.73731 4.02798 6.36647 4.57544 5.36324 5.57846C4.36001 6.58148 3.81227 7.95221 3.84799 9.3704C3.92829 12.5043 6.80149 14.9287 10.0454 14.3193V15.0563C10.0454 15.1696 10.0388 15.2829 10.0476 15.3951C10.0542 15.4732 10.0168 15.4864 9.95629 15.4952C9.53387 15.5562 9.10643 15.575 8.68029 15.5513C7.71185 15.5056 6.76815 15.2304 5.92699 14.7483C4.24619 13.7748 3.18579 12.3393 2.81179 10.4297C2.16499 7.1176 4.26379 3.8869 7.54949 3.1048C10.9185 2.29303 14.3147 4.33857 15.1725 7.6962C15.3925 8.5564 15.42 9.4254 15.2781 10.301C15.2726 10.3362 15.2781 10.3802 15.2176 10.3802C14.8491 10.3769 14.4817 10.378 14.1132 10.378Z"/>
  <path d="M13.9996 13.7253C13.9996 14.3424 13.9985 14.9595 14.0018 15.5766C14.0018 15.6481 13.9853 15.6701 13.9116 15.669C13.6242 15.6646 13.3367 15.6646 13.0492 15.669C12.9744 15.6701 12.9579 15.6459 12.959 15.5755C12.9612 14.3512 12.9601 13.1269 12.9612 11.9026C12.9612 11.6738 13.0932 11.5429 13.322 11.5418H13.6707C13.8786 11.544 14.0007 11.6661 14.0018 11.8751C13.9996 12.4911 13.9996 13.1082 13.9996 13.7253Z"/>
  <path d="M12.2728 14.4128C12.2728 14.8 12.2706 15.1883 12.2739 15.5755C12.275 15.6459 12.2596 15.6701 12.1837 15.669C11.89 15.6652 11.5963 15.6652 11.3026 15.669C11.2443 15.6701 11.2256 15.6547 11.2256 15.5942C11.2278 14.8165 11.2256 14.0377 11.2278 13.26C11.2278 13.0499 11.3719 12.908 11.5809 12.9036C11.681 12.9014 11.7811 12.9025 11.8812 12.9036C12.1551 12.9036 12.2717 13.0191 12.2717 13.2908C12.2739 13.6637 12.2728 14.0377 12.2728 14.4128Z"/>
  <path d="M15.7441 14.9485C15.7441 15.1586 15.7419 15.3687 15.7452 15.5788C15.7463 15.6415 15.7353 15.6701 15.6627 15.669C15.3686 15.6652 15.0745 15.6652 14.7805 15.669C14.7145 15.6701 14.7002 15.647 14.7002 15.5854C14.7024 15.1685 14.7002 14.7516 14.7024 14.3358C14.7035 14.0916 14.8531 13.9442 15.094 13.9442H15.3558C15.4584 13.9436 15.557 13.9839 15.6298 14.0561C15.7027 14.1284 15.7438 14.2266 15.7441 14.3292V14.9485Z"/>
</svg>
