<svg xmlns="http://www.w3.org/2000/svg" viewBox="0 0 28 24">
  <path
    fill-rule="evenodd"
    clip-rule="evenodd"
    d="M24.8672 0.853516H3.15825C2.01413 0.853516 1.07495 1.74217 0.995442 2.86534L0.98999 3.01989V21.2122C0.98999 22.2299 1.80088 23.0677 2.82655 23.1418L2.97448 23.1471H25.05C26.0953 23.1471 26.9532 22.3558 27.029 21.3563L27.0345 21.2122V3.01996C27.0337 1.87694 26.1443 0.938413 25.0217 0.858963L24.8672 0.853516ZM10.3242 8.73438L10.2242 8.63437H2.7645L2.6645 8.73438V21.2122L2.67289 21.2715C2.70578 21.3859 2.83114 21.4725 2.97448 21.4725H25.0492L25.119 21.4656C25.2543 21.4383 25.3591 21.3343 25.3591 21.2122V8.73438L25.2591 8.63437H18.7131L18.6131 8.73438V14.568L18.6048 14.6856C18.572 14.9175 18.4432 15.1269 18.2462 15.2614C18.0157 15.4173 17.7234 15.4493 17.4664 15.3459L14.4612 14.1488L11.4797 15.3424L11.3773 15.3772C11.3074 15.3959 11.2349 15.4052 11.1616 15.4052C10.9966 15.4052 10.8342 15.3561 10.6949 15.2636C10.4634 15.1082 10.3242 14.847 10.3242 14.568V8.73438ZM16.9386 2.62799L16.8386 2.52799H12.0989L11.9989 2.62799V13.1686L12.1369 13.2611L14.1004 12.4551L14.2234 12.415C14.3904 12.3747 14.5671 12.3868 14.728 12.4516L16.8016 13.2784L16.9386 13.1855V2.62799ZM7.42184 10.2262H5.60537C5.1433 10.2262 4.76818 10.6014 4.76818 11.0635C4.76818 11.49 5.08783 11.8425 5.50042 11.8942L5.60537 11.9007H7.42184C7.88404 11.9007 8.25919 11.5256 8.25919 11.0635C8.25919 10.6369 7.93955 10.2844 7.52683 10.2327L7.42184 10.2262ZM25.3512 2.93166C25.3094 2.70258 25.1081 2.52799 24.8672 2.52799H18.7131L18.6131 2.62799V6.85987L18.7131 6.95987H25.2591L25.3591 6.85987V3.01989L25.3512 2.93166ZM10.2242 2.52802L10.3242 2.62802V6.85987L10.2242 6.95987H2.7645L2.6645 6.85987V3.01989C2.6645 2.77877 2.83939 2.57767 3.06958 2.53596L3.15825 2.52802H10.2242Z"
    fill="currentColor"
  ></path>
</svg>
