<svg xmlns="http://www.w3.org/2000/svg" viewBox="0 0 30 30" fill="currentColor">
  <path fill-rule="evenodd" clip-rule="evenodd"
    d="M25.8671 3.85352H4.15814C3.01401 3.85352 2.07483 4.74217 1.99533 5.86534L1.98988 6.01989V24.2122C1.98988 25.2299 2.80076 26.0677 3.82644 26.1418L3.97436 26.1471H26.0499C27.0952 26.1471 27.9531 25.3558 28.0289 24.3563L28.0344 24.2122V6.01996C28.0336 4.87694 27.1442 3.93841 26.0216 3.85896L25.8671 3.85352ZM11.3241 11.7344L11.2241 11.6344H3.76438L3.66438 11.7344V24.2122L3.67278 24.2715C3.70567 24.3859 3.83102 24.4725 3.97436 24.4725H26.0491L26.1189 24.4656C26.2542 24.4383 26.359 24.3343 26.359 24.2122V11.7344L26.259 11.6344H19.713L19.613 11.7344V17.568L19.6047 17.6856C19.5719 17.9175 19.4431 18.1269 19.2461 18.2614C19.0156 18.4173 18.7233 18.4493 18.4663 18.3459L15.4611 17.1488L12.4796 18.3424L12.3771 18.3772C12.3073 18.3959 12.2347 18.4052 12.1615 18.4052C11.9964 18.4052 11.8341 18.3561 11.6948 18.2636C11.4633 18.1082 11.3241 17.847 11.3241 17.568V11.7344ZM17.9385 5.62799L17.8385 5.52799H13.0988L12.9988 5.62799V16.1686L13.1367 16.2611L15.1003 15.4551L15.2233 15.415C15.3902 15.3747 15.567 15.3868 15.7279 15.4516L17.8015 16.2784L17.9385 16.1855V5.62799ZM8.42173 13.2262H6.60526C6.14319 13.2262 5.76806 13.6014 5.76806 14.0635C5.76806 14.49 6.08771 14.8425 6.50031 14.8942L6.60526 14.9007H8.42173C8.88393 14.9007 9.25907 14.5256 9.25907 14.0635C9.25907 13.6369 8.93944 13.2844 8.52672 13.2327L8.42173 13.2262ZM26.3511 5.93166C26.3093 5.70258 26.1079 5.52799 25.8671 5.52799H19.713L19.613 5.62799V9.85987L19.713 9.95987H26.259L26.359 9.85987V6.01989L26.3511 5.93166ZM11.2241 5.52802L11.3241 5.62802V9.85987L11.2241 9.95987H3.76438L3.66438 9.85987V6.01989C3.66438 5.77877 3.83928 5.57767 4.06946 5.53596L4.15814 5.52802H11.2241Z" />
</svg>