
<svg viewBox="0 0 24 24" xmlns="http://www.w3.org/2000/svg">
<path d="M22.4482 14.5702C22.4482 11.8926 20.3536 9.65187 17.5135 8.93951C16.8938 5.5926 13.6015 3.11133 9.60109 3.11133C5.16218 3.11133 1.55127 6.21987 1.55127 10.0397C1.55127 12.0061 2.50363 13.847 4.18036 15.1588L3.74072 16.4728C3.68212 16.6515 3.67757 16.8435 3.72764 17.0247C3.77771 17.206 3.88017 17.3684 4.02218 17.4917C4.19618 17.6455 4.42036 17.7306 4.65491 17.7306C4.79891 17.7306 4.944 17.6973 5.08581 17.6297L7.09581 16.6206C7.83872 16.8486 8.53909 16.9479 9.40418 16.961C10.47 19.0151 12.8525 20.4568 15.6262 20.4568C16.4095 20.4575 17.1884 20.3401 17.9367 20.1088L19.1395 20.7688C19.2813 20.8479 19.4422 20.8888 19.6047 20.8888C19.7543 20.8891 19.9018 20.8543 20.0355 20.7873C20.1692 20.7202 20.2853 20.6228 20.3745 20.5028C20.4637 20.3828 20.5235 20.2435 20.5492 20.0962C20.5748 19.9488 20.5656 19.7975 20.5222 19.6544L20.2871 18.8706C21.666 17.7579 22.4482 16.2142 22.4482 14.5702ZM8.91709 15.6317C8.37008 15.5949 7.83014 15.4875 7.31072 15.3121L6.90163 15.2499L5.25927 16.073L5.73109 14.6515L5.32472 14.3717C3.76145 13.2982 2.86527 11.7191 2.86527 10.0397C2.86527 6.94424 5.88709 4.42533 9.60109 4.42533C12.7102 4.42533 15.4085 6.24551 16.1395 8.7006C16.0042 8.69187 15.8711 8.69406 15.7385 8.69187C15.7004 8.69187 15.6644 8.6826 15.6262 8.6826C15.6027 8.6826 15.5798 8.68806 15.5569 8.68915C15.105 8.69193 14.6543 8.73391 14.2096 8.8146C13.3688 8.96512 12.5603 9.26002 11.82 9.68624C11.4621 9.89413 11.1241 10.1346 10.8104 10.4046C10.8049 10.4084 10.8011 10.4128 10.7973 10.4155C10.4977 10.6736 10.2237 10.96 9.97909 11.2708C9.97145 11.2806 9.96545 11.2899 9.95727 11.2997C9.72281 11.6001 9.51958 11.9236 9.35072 12.2651C9.34145 12.2815 9.33491 12.2984 9.32727 12.3153C9.16299 12.6529 9.03536 13.0071 8.94654 13.3719C8.94272 13.3882 8.94109 13.4035 8.93782 13.4188C8.84979 13.7963 8.80477 14.1826 8.80363 14.5702C8.80363 14.9264 8.84181 15.2804 8.91709 15.6317ZM19.1509 18.0808C19.0373 18.1599 18.9516 18.273 18.9061 18.4038C18.8607 18.5346 18.8578 18.6764 18.8978 18.809L19.0178 19.2039L18.3153 18.8221C18.2348 18.7774 18.1458 18.7505 18.0541 18.743C17.9624 18.7354 17.8701 18.7475 17.7835 18.7784C17.0962 19.0201 16.3696 19.1428 15.6256 19.1428C13.098 19.1428 10.9838 17.7142 10.3385 15.7828C10.2938 15.6535 10.2464 15.5221 10.2169 15.3901C10.1539 15.1212 10.1205 14.8463 10.1171 14.5702C10.1171 12.0481 12.5891 9.99606 15.6262 9.99606C16.0118 9.99606 16.4007 10.0342 16.8098 10.1079C19.2775 10.5595 21.1342 12.3851 21.1342 14.5702C21.1342 15.9257 20.4125 17.2048 19.1509 18.0808Z" fill="currentColor"/>
<path d="M6.13843 7.95386C6.13843 7.78041 6.20733 7.61406 6.32998 7.49141C6.45263 7.36877 6.61898 7.29986 6.79243 7.29986C6.96588 7.29986 7.13223 7.36877 7.25488 7.49141C7.37752 7.61406 7.44643 7.78041 7.44643 7.95386C7.44643 8.12731 7.37752 8.29366 7.25488 8.41631C7.13223 8.53896 6.96588 8.60786 6.79243 8.60786C6.61898 8.60786 6.45263 8.53896 6.32998 8.41631C6.20733 8.29366 6.13843 8.12731 6.13843 7.95386ZM12.6822 7.95386C12.6822 8.31604 12.3899 8.60841 12.0277 8.60841C11.8541 8.60841 11.6876 8.53945 11.5649 8.4167C11.4421 8.29394 11.3732 8.12746 11.3732 7.95386C11.3732 7.78027 11.4421 7.61378 11.5649 7.49103C11.6876 7.36828 11.8541 7.29932 12.0277 7.29932C12.3899 7.29932 12.6822 7.59223 12.6822 7.95386ZM13.5833 12.5346C13.2206 12.5346 12.9288 12.8275 12.9288 13.1891C12.9288 13.3186 12.9672 13.4451 13.0391 13.5528C13.111 13.6604 13.2133 13.7443 13.3329 13.7939C13.4525 13.8434 13.5841 13.8564 13.711 13.8311C13.838 13.8058 13.9546 13.7435 14.0462 13.652C14.1377 13.5604 14.2001 13.4438 14.2253 13.3168C14.2506 13.1899 14.2376 13.0583 14.1881 12.9387C14.1385 12.819 14.0546 12.7168 13.947 12.6449C13.8393 12.573 13.7128 12.5346 13.5833 12.5346ZM16.8321 13.1891C16.8322 13.0155 16.9013 12.849 17.0242 12.7263C17.0851 12.6655 17.1573 12.6173 17.2368 12.5845C17.3163 12.5517 17.4014 12.5348 17.4874 12.5349C17.5734 12.5349 17.6586 12.5519 17.738 12.5849C17.8174 12.6179 17.8895 12.6662 17.9503 12.727C18.011 12.7879 18.0592 12.8601 18.0921 12.9396C18.1249 13.0191 18.1418 13.1042 18.1417 13.1902C18.1416 13.3638 18.0725 13.5303 17.9496 13.6529C17.8267 13.7755 17.6602 13.8444 17.4866 13.8442C17.313 13.8441 17.1466 13.775 17.0239 13.6521C16.9013 13.5293 16.8325 13.3627 16.8326 13.1891H16.8321Z" fill="currentColor"/>
</svg>
