<svg xmlns="http://www.w3.org/2000/svg" viewBox="0 0 98 25" fill="none">
	<g clip-path="url(#clip0_723_3568)">
		<path
			d="M9.2 15.306C9.01058 15.4023 8.79119 15.4213 8.58805 15.359C8.3849 15.2967 8.21388 15.158 8.111 14.972L8.057 14.854L5.814 9.93004C5.77583 9.84725 5.76627 9.75411 5.78682 9.66529C5.80738 9.57647 5.85688 9.497 5.92754 9.43939C5.99821 9.38178 6.08602 9.34931 6.17716 9.34707C6.2683 9.34483 6.3576 9.37297 6.431 9.42704L9.08 11.31C9.23961 11.4156 9.42185 11.482 9.61194 11.5039C9.80202 11.5258 9.99458 11.5025 10.174 11.436L22.631 5.89004C20.4 3.26004 16.723 1.54004 12.56 1.54004C5.751 1.54004 0.229004 6.14304 0.229004 11.826C0.229004 14.923 1.891 17.709 4.491 19.591C4.63459 19.6935 4.74133 19.8395 4.79537 20.0074C4.84941 20.1752 4.84788 20.3561 4.791 20.523C4.586 21.297 4.251 22.537 4.237 22.597C4.20221 22.6938 4.18003 22.7946 4.171 22.897C4.176 23.117 4.352 23.294 4.571 23.3C4.65577 23.296 4.73793 23.2694 4.809 23.223L7.506 21.663C7.70422 21.5426 7.93106 21.4773 8.163 21.474C8.285 21.474 8.406 21.493 8.523 21.529C9.83174 21.9065 11.1869 22.0987 12.549 22.1C19.357 22.1 24.88 17.5 24.88 11.814C24.8735 10.125 24.3858 8.47281 23.474 7.05104L9.277 15.25L9.2 15.307V15.306Z"
			fill="#09BB07" />
		<path
			d="M54.577 8.84921H63.826V9.84921H54.577V8.84921ZM54.577 11.4402H63.826V12.4402H54.577V11.4402ZM63.591 19.1002V14.0942H54.811V19.1002H63.591ZM55.714 14.9292H62.706V18.2712H55.714V14.9302V14.9292ZM52.037 19.6202V8.10321C52.574 6.94121 53.031 5.74321 53.406 4.52021L52.571 4.04321C51.8227 6.7764 50.6359 9.37009 49.057 11.7232L49.551 12.5802C50.1203 11.7311 50.6496 10.8558 51.137 9.95721V19.6292L52.037 19.6202ZM85.646 19.6202V8.10321C86.18 6.94021 86.636 5.74321 87.011 4.52021L86.186 4.04321C85.4353 6.77607 84.2477 9.36955 82.669 11.7232L83.163 12.5802C83.733 11.7312 84.2629 10.8559 84.751 9.95721V19.6292L85.646 19.6202ZM64.797 6.19121H59.37L59.941 5.86021H59.961V5.84021C59.892 5.68621 59.721 5.32021 59.538 4.93721C59.355 4.55421 59.19 4.20921 59.107 4.02021V3.99121L58.281 4.46921V4.49121C58.567 5.04621 58.83 5.55421 59.058 6.04621C59.083 6.09621 59.103 6.14921 59.118 6.20321H53.69V7.09721H64.83L64.797 6.19121ZM40.929 5.51121H40.1V8.43021H38.534V4.28321H37.703V8.42921H36.07V5.51021H35.242V9.25621H40.928L40.929 5.51121ZM35.5 10.8892H40.54V11.8892H35.5V10.8892ZM36.589 14.9292V14.1772H39.143V16.0292C39.111 16.6742 39.08 16.8712 38.857 17.1712L39.343 18.0712L39.366 18.0542C40.1332 17.4219 40.8883 16.7751 41.631 16.1142L41.646 16.1002L41.246 15.4062L41.231 15.3802L39.957 16.4712V13.3512H35.694V14.6092C35.817 16.3232 35.386 17.5662 34.417 18.2742H34.397L34.86 19.0772L34.874 19.1032L34.9 19.0832C36.106 18.1002 36.677 16.6972 36.589 14.9292ZM31.143 8.20321L31.643 9.06021C32.9527 7.74568 34.0384 6.22557 34.857 4.56021L34.083 4.11121C33.3552 5.63985 32.3595 7.02574 31.143 8.20321ZM30.917 13.4112L31.377 14.2092L31.397 14.2402L31.42 14.2142C31.9163 13.6324 32.3929 13.034 32.849 12.4202V19.6202H33.677V11.0492C34.0782 10.3307 34.4388 9.59016 34.757 8.83121V8.81121L33.96 8.35721V8.38621C33.2447 10.2177 32.2246 11.915 30.943 13.4062L30.917 13.4112Z"
			fill="#494949" />
		<path
			d="M47.0142 7.9601V7.1311H43.3312C43.6923 6.14366 43.9631 5.12548 44.1402 4.0891H43.2832C42.8404 6.35635 42.0203 8.53323 40.8572 10.5291L41.3802 11.4371L41.7632 10.6691C41.9092 10.4141 42.0262 10.2001 42.1142 10.0311C42.3742 12.2661 42.8262 14.0661 43.4602 15.3831C42.7076 16.6087 41.7676 17.7088 40.6742 18.6431H40.6602L41.1372 19.4691L41.1542 19.4971L41.1772 19.4771C42.4912 18.2461 43.4002 17.1691 43.8802 16.2741C44.5913 17.4595 45.4483 18.551 46.4312 19.5231L46.4542 19.5491L46.9462 18.6911V18.6741H46.9292C45.9095 17.74 45.0417 16.6526 44.3572 15.4511C45.2972 13.7371 45.8832 11.2141 46.1002 7.9631L47.0142 7.9601ZM43.9462 14.4091C43.4002 13.0001 42.9942 11.0861 42.7402 8.7141C42.8272 8.4561 42.9322 8.2041 43.0542 7.9601H45.2772C45.1062 10.6661 44.6572 12.8341 43.9462 14.4091ZM81.6112 7.0831V6.1971H74.5432V3.9541H73.6402V6.1971H66.6342V7.0831H73.6402V10.0291H69.0972V10.8371C69.6619 12.0134 70.3703 13.1151 71.2062 14.1171C71.8342 14.8851 72.5362 15.5891 73.3002 16.2201C71.3543 17.4237 69.2012 18.2542 66.9512 18.6691L67.4742 19.5741C69.7883 18.9994 71.9928 18.0499 74.0002 16.7631C75.8655 18.0998 77.9809 19.0473 80.2202 19.5491H80.2462L80.6112 18.8511C79.7828 18.6185 78.9668 18.3442 78.1662 18.0291C76.9257 17.5558 75.742 16.9453 74.6372 16.2091C76.6273 14.7441 78.1641 12.7478 79.0712 10.4491L78.3372 10.0231H74.5432V7.0831H81.6112ZM78.0292 10.7971C78.0292 10.7971 77.1172 13.4061 73.9942 15.6311C72.3052 14.3505 70.936 12.6959 69.9942 10.7971H78.0292ZM92.9692 18.4741H92.4512V19.3691H93.2312C94.1092 19.3691 94.5892 19.1801 94.9632 18.7971C95.3372 18.4141 95.5002 17.8741 95.4802 17.1431V8.8371H97.8832V7.9431H95.4802V4.1101H94.5712V7.9421H87.2062V8.8361H94.5712V17.1451C94.5712 18.0481 94.0232 18.4731 92.9692 18.4731V18.4741Z"
			fill="#494949" />
		<path
			d="M90.9661 15.514L91.8541 14.997C91.2258 13.7175 90.5925 12.4405 89.9541 11.166L89.1431 11.64C89.7887 12.9131 90.3967 14.205 90.9661 15.514Z"
			fill="#494949" />
	</g>
</svg>