<svg xmlns="http://www.w3.org/2000/svg" viewBox="0 0 27 30">
  <path
    fill-rule="evenodd"
    clip-rule="evenodd"
    d="M17.5894 0.250295L17.717 0.258672C17.8433 0.275339 17.9651 0.316616 18.0755 0.380147L18.1818 0.451009L18.2922 0.547637L24.2212 6.47753L24.3263 6.59353C24.4911 6.79466 24.6041 7.03332 24.655 7.28836L24.6781 7.44317L24.6857 7.61159L24.6855 13.468L24.6783 13.5852C24.6224 14.0465 24.2433 14.4115 23.7682 14.4393C23.2932 14.4672 22.874 14.1491 22.7644 13.6974L22.7436 13.5818L22.7363 13.4531L22.7368 9.54502H16.9773L16.8345 9.53865C16.1288 9.47549 15.5488 8.94867 15.4182 8.25227L15.3982 8.11081L15.3904 7.94637L15.3907 2.19898H2.64734V27.1858H10.2434L10.3557 27.1923C10.7616 27.2396 11.0961 27.5374 11.1901 27.9353L11.2096 28.0461L11.2169 28.175L11.2104 28.2843C11.1631 28.6799 10.8652 29.014 10.4671 29.108L10.3562 29.1276L10.2272 29.1349L2.28517 29.1345L2.14245 29.1281C1.43674 29.065 0.856693 28.5381 0.726104 27.8417L0.706075 27.7003L0.698364 27.5358L0.698659 1.83681L0.705016 1.69408C0.76815 0.988379 1.29498 0.408329 1.99141 0.27774L2.13286 0.257711L2.29731 0.25L17.5894 0.250295ZM22.2872 16.6177C22.6555 16.6177 23.0107 16.7457 23.293 16.9772L23.4094 17.0827L26.0063 19.6796L26.1091 19.7927L26.1992 19.913C26.5892 20.4889 26.5592 21.2644 26.1091 21.8097L26.0063 21.9229L19.229 28.6993L14.399 28.7133L14.386 23.8613L21.165 17.0828L21.2814 16.9773C21.5638 16.7457 21.9189 16.6177 22.2872 16.6177ZM16.4099 24.5944L22.2872 18.7171L24.372 20.8018L18.4923 26.6828L18.316 26.756L16.3423 26.7602L16.3367 24.7718L16.4099 24.5944ZM11.4677 19.8397L11.5989 19.8437C12.0997 19.8756 12.357 20.0991 12.4242 20.5529L12.4378 20.6824L12.4422 20.8221L12.4382 20.9512C12.4035 21.489 12.1422 21.7499 11.5983 21.7844L11.4677 21.7884H7.7947L7.66348 21.7844C7.16277 21.7525 6.90544 21.5291 6.83824 21.0752L6.82459 20.9457L6.82023 20.806L6.82423 20.677C6.85888 20.1391 7.12021 19.8782 7.66414 19.8437L7.7947 19.8397H11.4677ZM16.4963 14.9464L16.3651 14.9424H7.7947L7.66414 14.9463C7.12021 14.9809 6.85888 15.2418 6.82423 15.7796L6.82023 15.9087L6.82459 16.0483L6.83824 16.1779C6.90544 16.6317 7.16277 16.8552 7.66348 16.8871L7.7947 16.8911H16.3651L16.4956 16.8871C17.0396 16.8526 17.3009 16.5917 17.3356 16.0538L17.3396 15.9248L17.3352 15.7851L17.3215 15.6556C17.2543 15.2017 16.997 14.9783 16.4963 14.9464ZM11.4677 10.045L11.5989 10.049C12.0997 10.0809 12.357 10.3044 12.4242 10.7582L12.4378 10.8877L12.4422 11.0274L12.4382 11.1565C12.4035 11.6943 12.1422 11.9552 11.5983 11.9897L11.4677 11.9937H7.7947L7.66348 11.9897C7.16277 11.9578 6.90544 11.7344 6.83824 11.2805L6.82459 11.151L6.82023 11.0113L6.82423 10.8822C6.85888 10.3444 7.12021 10.0835 7.66414 10.049L7.7947 10.045H11.4677ZM17.3394 7.59634V2.35376L22.5849 7.59634H17.3394Z"
    fill="currentColor"
  />
</svg>
